<?xml version="1.0" standalone="no"?>
<!DOCTYPE svg PUBLIC "-//W3C//DTD SVG 1.1//EN" "http://www.w3.org/Graphics/SVG/1.1/DTD/svg11.dtd" >
<svg xmlns="http://www.w3.org/2000/svg">
<metadata></metadata>
<defs>
<font id="ClarendonLTStdLightRegular" horiz-adv-x="1251" >
<font-face units-per-em="2048" ascent="1358" descent="-690" />
<missing-glyph horiz-adv-x="624" />
<glyph unicode="&#xfb01;" horiz-adv-x="1366" d="M39 0v96h113q54 0 80 26.5t26 86.5v653h-219v96h219v101q0 90 40 158.5t107.5 106.5t145 56.5t162.5 18.5q61 0 120.5 -11t117.5 -35.5t94 -72.5t36 -113q0 -49 -32.5 -79.5t-85.5 -30.5q-49 0 -80 25.5t-31 70.5q0 21 6.5 37t15 24.5t17.5 13.5t15.5 7.5t6.5 3.5 q0 11 -24 25.5t-77.5 26.5t-119.5 12q-128 0 -194 -60.5t-66 -165.5v-119h684v-768q0 -94 82 -94h129v-96h-577v96h110q49 0 65.5 22t16.5 72v578q0 46 -25 70t-69 24h-416v-672q0 -94 84 -94h129v-96h-606z" />
<glyph unicode="&#xfb02;" horiz-adv-x="1366" d="M39 0v96h137q49 0 65.5 22t16.5 72v672h-219v96h219v76q0 112 59 197t153 126.5t206 41.5h440v-1209q0 -50 16.5 -72t65.5 -22h129v-96h-577v96h110q49 0 65.5 22t16.5 72v879q-37 3 -60.5 29.5t-23.5 60.5q0 41 22 66t70 43v4q-58 31 -198 31q-185 0 -252.5 -61.5 t-67.5 -233.5v-50h246v-96h-246v-672q0 -50 16.5 -72t65.5 -22h131v-96h-606z" />
<glyph horiz-adv-x="0" />
<glyph horiz-adv-x="2048" />
<glyph unicode=" "  horiz-adv-x="624" />
<glyph unicode="&#x09;" horiz-adv-x="624" />
<glyph unicode="&#xa0;" horiz-adv-x="624" />
<glyph unicode="!" horiz-adv-x="681" d="M225 84q0 50 32 82.5t83 32.5t83 -32.5t32 -82.5t-32 -82.5t-83 -32.5t-83 32.5t-32 82.5zM227 1247q0 63 26.5 107.5t84.5 44.5t84.5 -44.5t26.5 -107.5q0 -13 -12.5 -152t-28.5 -329.5t-23 -302.5q-1 -17 -2 -49t-2 -49h-86q-1 17 -2 49t-2 49q-7 112 -23 302.5 t-28.5 329.5t-12.5 152z" />
<glyph unicode="&#x22;" horiz-adv-x="681" d="M135 1300q0 42 16 70.5t50 28.5t49.5 -28.5t15.5 -70.5q0 -51 -2 -67l-33 -418q0 -63 -30 -63q-9 0 -15 4.5t-9 13.5t-4 15.5t-2 17.5t-1 12l-33 418q0 7 -1 30t-1 37zM416 1300q0 42 15.5 70.5t49.5 28.5t50 -28.5t16 -70.5q0 -51 -2 -67l-33 -418q0 -63 -31 -63 q-9 0 -15 4.5t-8.5 13.5t-4 15.5t-2 17t-0.5 12.5l-33 418q0 7 -1 30t-1 37z" />
<glyph unicode="#" d="M188 385l7 96h194l39 277h-190l6 96h194l56 385h108l-57 -385h237l58 385h106l-57 -385h174l-6 -96h-178l-39 -277h176l-6 -96h-181l-57 -385h-106l57 385h-238l-57 -385h-106l55 385h-189zM496 481h237l39 277h-237z" />
<glyph unicode="$" d="M80 285q0 72 35.5 113.5t105.5 41.5q45 0 85 -30.5t40 -81.5q0 -39 -34.5 -76t-104.5 -37q14 -20 31 -36.5t32 -29t36 -23l35 -17.5t38.5 -13t36.5 -9t38 -6t35 -4t36 -3t32 -2v479q-171 37 -239 65q-165 69 -198 211q-9 39 -9 84q0 72 26 131.5t69 99t101.5 68t120 42.5 t129.5 18v160h123v-160q65 0 141 -23t143 -61.5t111.5 -96.5t44.5 -120q0 -63 -34 -100.5t-91 -37.5q-54 0 -87.5 32.5t-33.5 86.5q0 43 28.5 72t60.5 29q-13 41 -109.5 77t-173.5 39v-454q491 -97 491 -375q0 -100 -42.5 -173.5t-116 -114t-155.5 -60t-177 -21.5v-223h-123 v223q-62 0 -123 8t-126.5 30t-114.5 56t-81 91.5t-32 130.5zM285 954q0 -99 70 -148t202 -65v426q-124 -9 -198 -64.5t-74 -148.5zM680 72q45 3 86 10t84.5 23.5t75 40t51.5 63t20 88.5q0 84 -73.5 135t-243.5 88v-448z" />
<glyph unicode="%" horiz-adv-x="1705" d="M86 881q0 108 35 194t111 140.5t182 54.5t182 -54.5t110.5 -140.5t34.5 -194t-34.5 -193.5t-110.5 -139.5t-182 -54t-182 54t-111 139.5t-35 193.5zM238 881q0 -314 176 -314t176 314q0 315 -176 315t-176 -315zM377 -31l852 1301h100l-852 -1301h-100zM965 356 q0 108 34.5 194t110.5 140.5t182 54.5t182 -54.5t111 -140.5t35 -194t-35 -193.5t-111 -139.5t-182 -54t-182 54t-110.5 139.5t-34.5 193.5zM1116 356q0 -313 176 -313t176 313q0 316 -176 316t-176 -316z" />
<glyph unicode="&#x26;" horiz-adv-x="1705" d="M94 375q0 45 9.5 84.5t23.5 70t40 60.5t47.5 49.5t58.5 44.5t61 39t66 37.5t63 36.5q-90 131 -90 274q0 147 91 237.5t238 90.5q123 0 206 -78t83 -199q0 -57 -25 -111t-70.5 -100t-92.5 -82t-109 -73q9 -15 48.5 -77t53.5 -84.5t49 -74t57.5 -81t55 -69t64.5 -71.5 l72 90q123 156 123 215q0 62 -36.5 83.5t-101.5 21.5h-69v106h598v-106h-60q-63 0 -96 -20.5t-80 -86.5l-274 -381q45 -64 94 -97.5t121 -33.5q55 0 95 29.5t59 78.5t27.5 98.5t8.5 104.5h107q0 -77 -9.5 -140t-34 -120.5t-63.5 -96.5t-101.5 -62t-144.5 -23 q-156 0 -294 121q-153 -121 -398 -121q-135 0 -239 44t-168 139.5t-64 232.5zM293 397q0 -143 88 -225t231 -82q62 0 134.5 23t125.5 59q-177 196 -358 506q-104 -55 -162.5 -119.5t-58.5 -161.5zM547 1092q0 -48 26 -110.5t60 -111.5q46 28 76 50t63.5 55t50.5 72.5 t17 85.5q0 65 -39 110t-101 45q-73 0 -113 -56.5t-40 -139.5z" />
<glyph unicode="'" horiz-adv-x="454" d="M162 1300q0 42 15.5 70.5t49.5 28.5t50 -28.5t16 -70.5q0 -51 -2 -67l-33 -418q0 -63 -31 -63q-9 0 -15 4.5t-8.5 13.5t-4 15.5t-2 17t-0.5 12.5l-33 418q0 7 -1 30t-1 37z" />
<glyph unicode="(" horiz-adv-x="681" d="M70 504q0 149 34 285.5t101 255.5t176.5 211t251.5 143v-74q-93 -51 -165 -120.5t-118 -147.5t-75.5 -171.5t-41.5 -187t-12 -200.5q0 -604 412 -817v-74q-142 51 -251.5 143t-176.5 211t-101 256t-34 287z" />
<glyph unicode=")" horiz-adv-x="681" d="M49 -319q93 51 165 120.5t118 147.5t75.5 171.5t41.5 187t12 200.5q0 604 -412 817v74q142 -51 251.5 -143t176.5 -211t101 -256t34 -287q0 -149 -34 -285.5t-101 -255.5t-176.5 -211t-251.5 -143v74z" />
<glyph unicode="*" horiz-adv-x="1024" d="M166 866q0 49 65 78q24 10 85.5 20.5t78.5 14.5q61 12 82 41q-44 26 -63 33q-30 10 -100 20.5t-101 24.5q-45 20 -45 59q0 37 20.5 60.5t57.5 23.5q30 0 65.5 -30.5t72.5 -75.5t54 -58q24 -17 54 -26q0 5 1 22.5t0.5 31.5t-4.5 28q-8 29 -23 72t-22.5 69.5t-7.5 42.5 q0 82 74 82t74 -82q0 -15 -8.5 -42.5t-22 -68.5t-21.5 -73q-4 -14 -5 -27.5t0 -32.5t1 -22q30 9 54 26q17 13 54.5 58t73 75.5t64.5 30.5q38 0 59 -23.5t21 -60.5q0 -38 -47 -59q-31 -14 -101 -24.5t-100 -20.5q-19 -7 -63 -33q21 -28 82 -41q17 -4 79 -14.5t87 -20.5 q65 -30 65 -78q0 -30 -21 -50.5t-61 -20.5q-26 0 -56 24.5t-67 67.5t-47 53q-27 23 -80 51q0 -9 15 -112q1 -4 21 -62.5t20 -91.5q0 -41 -14 -64.5t-56 -23.5t-56 23.5t-14 64.5q0 32 20 88.5t21 65.5q15 103 15 112q-56 -29 -78 -51q-13 -12 -48.5 -53.5t-65.5 -66.5 t-56 -25q-40 0 -61 20.5t-21 50.5z" />
<glyph unicode="+" horiz-adv-x="1228" d="M135 424v111h424v423h111v-423h424v-111h-424v-424h-111v424h-424z" />
<glyph unicode="," horiz-adv-x="624" d="M168 -219q65 5 128 58t69 114q3 30 0 59q-47 -26 -82 -26q-55 0 -82 27.5t-27 74.5q0 52 34.5 81.5t90.5 29.5q75 0 115.5 -54.5t40.5 -136.5q0 -47 -17 -93.5t-50 -90t-90 -75.5t-130 -44v76z" />
<glyph unicode="-" horiz-adv-x="624" d="M47 406v147h531v-147h-531z" />
<glyph unicode="." horiz-adv-x="624" d="M197 84q0 50 31.5 82.5t82.5 32.5t83 -32.5t32 -82.5t-32 -82.5t-83 -32.5t-82.5 32.5t-31.5 82.5z" />
<glyph unicode="/" horiz-adv-x="569" d="M2 -41l453 1440h112l-452 -1440h-113z" />
<glyph unicode="0" d="M70 618q0 105 20 200t63.5 178t107.5 143.5t157 95.5t207 35t207 -35t157 -95.5t107.5 -143.5t63.5 -178t20 -200t-20 -199.5t-63.5 -177.5t-107.5 -143t-157 -94.5t-207 -34.5t-207 34.5t-157 94.5t-107.5 143t-63.5 177.5t-20 199.5zM274 618q0 -264 86 -405t265 -141 q350 0 350 546q0 264 -86 406.5t-264 142.5t-264.5 -142.5t-86.5 -406.5z" />
<glyph unicode="1" d="M242 0v102h215q48 0 65 22t17 73v757h-293v103q308 0 372 213h107v-1073q0 -51 17 -73t65 -22h203v-102h-768z" />
<glyph unicode="2" d="M96 -10q0 118 27 210t72.5 149.5t104 100t124 70t130.5 51t123.5 50t104 60.5t72.5 89.5t27 130.5q0 123 -90 194.5t-216 71.5q-73 0 -134.5 -14.5t-116 -58t-72.5 -111.5q70 0 105.5 -29t35.5 -94q0 -53 -35.5 -84t-89.5 -31q-71 0 -106 47.5t-35 122.5q0 78 31.5 140.5 t82 101.5t117.5 65.5t134 37t137 10.5q92 0 173.5 -25.5t145 -73.5t100.5 -125t37 -172q0 -89 -32 -157t-84.5 -108t-121.5 -72t-142 -51t-147 -44t-136 -51.5t-109.5 -73t-66.5 -108.5q66 41 116 41q47 0 228 -53q188 -54 264 -54q170 0 170 260h96q0 -60 -5.5 -110.5 t-18 -101.5t-36.5 -89.5t-59 -69.5t-86.5 -47t-117.5 -16q-97 0 -265 84q-5 3 -27.5 13.5t-29 13.5l-26 12t-27.5 12t-24.5 10t-25.5 9.5t-22 6t-23 4.5t-20 1q-53 0 -81.5 -43.5t-28.5 -101.5h-101z" />
<glyph unicode="3" d="M94 287q0 67 39.5 108t106.5 41q56 0 88 -32t32 -87q0 -51 -39.5 -78.5t-93.5 -27.5q21 -67 117.5 -103t183.5 -36q66 0 117.5 5t105.5 22t89.5 46t58.5 79.5t23 119.5q0 63 -19.5 110.5t-51.5 76t-80 46t-97.5 23.5t-110.5 6h-76v103h64q42 0 77.5 3t76 11t72 23.5 t58 38t40.5 58.5t14 81q0 121 -75.5 182t-197.5 61q-101 0 -176.5 -21.5t-148.5 -78.5q102 -12 102 -117q0 -51 -34 -86t-85 -35q-65 0 -96 42t-31 110q0 75 51.5 134t130 91t156 48t144.5 16q84 0 162.5 -18t148.5 -55t112 -104.5t42 -156.5q0 -62 -30.5 -116t-75.5 -86.5 t-94.5 -50.5t-90.5 -17v-4q323 -61 323 -322q0 -77 -24.5 -137.5t-69.5 -100t-99 -67t-122.5 -41.5t-129.5 -19.5t-130 -5.5q-60 0 -121.5 11t-122.5 35.5t-108 60.5t-76 90.5t-29 120.5z" />
<glyph unicode="4" d="M47 367v98l719 805h135v-801h256v-102h-256v-170q0 -51 17 -73t65 -22h174v-102h-711v102h187q48 0 65 22t17 73v170h-668zM199 469h516v580z" />
<glyph unicode="5" d="M100 279q0 66 37 110.5t103 44.5q59 0 93 -30t34 -87q0 -53 -40 -83.5t-96 -28.5q45 -67 125 -100t170 -33q183 0 287.5 83t104.5 261q0 154 -93.5 240.5t-249.5 86.5q-94 0 -189 -37t-130 -90h-94l51 654q126 -34 193 -45q124 -15 198 -15q277 0 461 60 q-16 -126 -197 -189q-129 -45 -288 -45q-155 0 -263 29l-26 -295q86 45 166 60.5t190 15.5q215 0 345 -114.5t130 -325.5q0 -93 -31.5 -168t-84 -124t-125.5 -82.5t-152 -48t-166 -14.5q-59 0 -120 10t-123 34t-110.5 58.5t-79 88.5t-30.5 119z" />
<glyph unicode="6" d="M104 563q0 150 34 274.5t103.5 223t186.5 154t272 55.5q61 0 126.5 -15.5t126.5 -46t100 -83.5t39 -119q0 -61 -36 -96.5t-98 -35.5q-47 0 -79.5 33t-32.5 80q0 43 22 75t62 38q-37 33 -101 50t-122 17q-93 0 -163.5 -29t-113.5 -76.5t-70.5 -117t-38.5 -141.5t-12 -160 q156 148 355 148q102 0 188 -25t152 -74.5t103.5 -129.5t37.5 -183t-37.5 -183t-103.5 -128.5t-152 -73.5t-188 -25q-122 0 -218.5 31t-159.5 84t-104.5 129.5t-59.5 162.5t-18 187zM330 379q0 -140 79.5 -223.5t225.5 -83.5t225.5 83.5t79.5 223.5t-79.5 224.5t-225.5 84.5 t-225.5 -84.5t-79.5 -224.5z" />
<glyph unicode="7" d="M137 719v520h103v-154h4q70 82 136.5 118t166.5 36q82 0 215 -45q124 -47 182 -47q48 0 85 23t44 69h96q0 -79 -47.5 -173t-115 -187t-135 -192t-115 -221t-47.5 -243v-223h-205v197q0 88 25.5 178t62.5 161t94.5 151.5t103 133t108 123.5t91.5 107v4q-74 -39 -201 -39 q-68 0 -170 24q-106 25 -145 25q-46 0 -82 -10.5t-60 -27t-41.5 -44t-27 -54t-14.5 -65.5t-6.5 -70t-1.5 -75h-103z" />
<glyph unicode="8" d="M90 297q0 127 82.5 205t216.5 116v5q-58 21 -98.5 44.5t-76.5 59t-54.5 87t-18.5 118.5q0 68 30 127.5t88 107t153 75.5t215 28t215.5 -27.5t153.5 -72.5t88 -99.5t30 -112.5q0 -60 -22 -107.5t-63 -80.5t-84 -54.5t-99 -39.5v-2q84 -32 136 -59t96 -67t63.5 -94.5 t19.5 -129.5q0 -72 -24.5 -130t-68 -95.5t-96 -64t-115.5 -40t-118.5 -19.5t-113.5 -6q-57 0 -113.5 6t-118.5 19.5t-115 39t-96 60t-67.5 87t-24.5 116.5zM264 324q0 -252 354 -252q369 0 369 227q0 55 -25 88.5t-79 65.5q-52 31 -179.5 75.5t-158.5 44.5q-16 0 -45.5 -6.5 t-71 -24.5t-77.5 -44t-61.5 -72t-25.5 -102zM315 954q0 -76 39.5 -112.5t122.5 -63.5q186 -61 240 -61q63 7 143 78.5t80 150.5q0 78 -42 129t-107.5 71.5t-153.5 20.5q-153 0 -237.5 -58t-84.5 -155z" />
<glyph unicode="9" d="M104 860q0 137 66 231t172.5 136.5t243.5 42.5q122 0 218 -31t159.5 -84t105 -129.5t59 -162.5t17.5 -187q0 -150 -34 -274.5t-103.5 -223t-186.5 -154t-272 -55.5q-61 0 -126.5 15.5t-126 46t-99.5 83.5t-39 119q0 61 35.5 96.5t97.5 35.5q47 0 79.5 -33t32.5 -80 q0 -43 -22 -75t-62 -38q37 -33 101.5 -50t122.5 -17q93 0 163.5 29t113.5 76.5t70 117.5t38 141.5t12 159.5q-155 -147 -354 -147q-102 0 -188 25t-152.5 74t-104 129t-37.5 183zM309 860q0 -140 79.5 -224.5t225.5 -84.5t226 84.5t80 224.5t-80 223.5t-226 83.5 t-225.5 -83.5t-79.5 -223.5z" />
<glyph unicode=":" horiz-adv-x="624" d="M197 84q0 50 31.5 82.5t82.5 32.5t83 -32.5t32 -82.5t-32 -82.5t-83 -32.5t-82.5 32.5t-31.5 82.5zM197 791q0 50 31.5 82t82.5 32t83 -32t32 -82t-32 -82.5t-83 -32.5t-82.5 32.5t-31.5 82.5z" />
<glyph unicode=";" horiz-adv-x="624" d="M168 -219q65 5 128 58t69 114q3 30 0 59q-47 -26 -82 -26q-55 0 -82 27.5t-27 74.5q0 52 34.5 81.5t90.5 29.5q75 0 115.5 -54.5t40.5 -136.5q0 -47 -17 -93.5t-50 -90t-90 -75.5t-130 -44v76zM199 791q0 50 31.5 82t82.5 32t83 -32t32 -82t-32 -82.5t-83 -32.5 t-82.5 32.5t-31.5 82.5z" />
<glyph unicode="&#x3c;" horiz-adv-x="1228" d="M94 420v119l1041 475v-127l-893 -408l893 -407v-127z" />
<glyph unicode="=" horiz-adv-x="1228" d="M135 238v110h959v-110h-959zM135 610v111h959v-111h-959z" />
<glyph unicode="&#x3e;" horiz-adv-x="1228" d="M94 -55v127l893 407l-893 408v127l1041 -475v-119z" />
<glyph unicode="?" horiz-adv-x="1024" d="M68 1047q0 74 27 134t71.5 100t104.5 67t124 39t131 12q66 0 127.5 -13.5t116.5 -42.5t96.5 -70t65.5 -100t24 -129t-24 -128t-62.5 -98.5t-85 -76t-93 -68t-85 -66.5t-62.5 -80t-24 -101v-64h-104v82q0 60 19.5 113t50 93t68 77.5t75 73.5t68 73t50 83.5t19.5 97.5 q0 112 -80.5 172.5t-196.5 60.5q-74 0 -146 -23.5t-123.5 -73t-51.5 -112.5q0 -25 6 -49q48 29 88 29q42 0 70 -29.5t28 -79.5q0 -53 -30 -83.5t-90 -30.5q-85 0 -128.5 61.5t-43.5 149.5zM356 84q0 50 32 82.5t83 32.5t83 -32.5t32 -82.5t-32 -82.5t-83 -32.5t-83 32.5 t-32 82.5z" />
<glyph unicode="@" horiz-adv-x="1638" d="M68 647q0 164 63 306t170 239t250 152t301 55q196 0 358 -79.5t255.5 -221t93.5 -314.5q0 -65 -16.5 -133.5t-51 -133.5t-81 -116.5t-112 -82.5t-139.5 -31q-50 0 -90 19t-61 45t-31.5 48.5t-9.5 34.5h-4l-9 -12q-8 -12 -11 -16t-14 -17t-18 -19.5t-20.5 -18.5 t-25.5 -18.5t-29.5 -15.5t-35 -14t-39.5 -9t-46 -5q-21 -1 -43 2.5t-53 18.5t-54.5 41t-40 76.5t-16.5 119.5q0 45 16 106.5t51 131t82.5 127.5t120 96.5t154.5 38.5q16 0 30 -1.5t26.5 -7t21 -8t18 -12.5t14 -13t13.5 -16.5t10.5 -15.5t10.5 -18t9 -17l23 84h145l-141 -541 q-4 -13 -5 -31.5t3.5 -42t25.5 -39.5t56 -16q67 0 124.5 41.5t93 106t55.5 138.5t20 144q0 73 -26.5 150.5t-81 151.5t-128 132.5t-177.5 94t-220 35.5q-130 0 -241.5 -48t-195 -137.5t-131.5 -227.5t-48 -308q0 -112 45 -218t125.5 -189.5t202 -134t263.5 -50.5 q130 0 223 24.5t203 73.5l29 -55q-87 -37 -145 -58t-143.5 -40t-164.5 -19q-161 0 -298 44.5t-228.5 116.5t-156.5 163.5t-94 184t-29 179.5zM659 545q0 -174 144 -174q37 0 81 41t82 106t63.5 155.5t25.5 180.5q0 51 -24 82t-68 31q-42 0 -92.5 -29t-98.5 -80t-80.5 -134 t-32.5 -179z" />
<glyph unicode="A" horiz-adv-x="1593" d="M39 0v106h84q64 0 94.5 28.5t56.5 94.5l439 1139h168l448 -1159q40 -103 146 -103h77v-106h-649v106h125q60 0 83.5 11t23.5 37q0 11 -5.5 31.5t-12 36t-16 39t-11.5 28.5l-62 166h-528l-64 -187q-6 -18 -16 -45.5t-14.5 -42t-4.5 -26.5q0 -29 23 -38.5t96 -9.5h113v-106 h-594zM539 561h446l-225 584z" />
<glyph unicode="B" horiz-adv-x="1478" d="M33 0v106h139q50 0 78.5 27.5t28.5 79.5v932q0 106 -95 106h-151v107h815q206 0 335.5 -86t129.5 -248q0 -253 -334 -309v-4q383 -49 383 -351q0 -176 -151 -268t-476 -92h-702zM477 106h293q85 0 147.5 12t116 40.5t81.5 84t28 136.5t-28 136.5t-81.5 84.5t-116.5 41 t-147 12h-293v-547zM477 760h271q173 0 269.5 63t96.5 181q0 124 -82 185.5t-284 61.5h-271v-491z" />
<glyph unicode="C" horiz-adv-x="1366" d="M61 678q0 157 41.5 287t122.5 227.5t210 152t294 54.5q223 0 410 -162l53 131h96v-539h-106q-23 213 -141.5 336t-290.5 123q-126 0 -218 -45.5t-146 -129t-79.5 -191.5t-25.5 -244q0 -97 15.5 -183.5t51 -165.5t88.5 -135.5t133.5 -90t180.5 -33.5q191 0 298.5 114.5 t125.5 307.5h131q-17 -271 -174 -402t-422 -131q-165 0 -292 57.5t-203.5 158t-114.5 227.5t-38 276z" />
<glyph unicode="D" horiz-adv-x="1593" d="M29 0v106h151q92 0 92 105v934q0 106 -94 106h-145v107h758q130 0 239 -22t203 -73t159 -128.5t101.5 -193.5t36.5 -263q0 -141 -37 -255t-101.5 -192t-154.5 -130.5t-192 -76.5t-218 -24h-798zM471 106h299q276 0 408.5 138t132.5 434q0 298 -138 435.5t-436 137.5h-266 v-1145z" />
<glyph unicode="E" horiz-adv-x="1478" d="M33 0v106h151q92 0 92 105v934q0 106 -94 106h-143v107h1307v-512h-107q-2 63 -5.5 103t-12 87.5t-22.5 76t-38 58t-58 45t-83 25.5t-113 10h-432v-491h170q50 0 81.5 7.5t53 22.5t32.5 49t16 75.5t8 113.5h106v-668h-106q-2 66 -5.5 107.5t-12 77.5t-20.5 54.5t-33.5 32 t-49.5 17.5t-70 4h-170v-547h432q45 0 82 4t67 14.5t53.5 22t41.5 32t31 40t22.5 50t15.5 57t9.5 67t5.5 74.5t4 84h107v-551h-1313z" />
<glyph unicode="F" horiz-adv-x="1366" d="M37 0v106h156q92 0 92 105v934q0 106 -95 106h-151v107h1270v-535h-107q0 130 -18.5 213t-61.5 131t-104 66t-156 18h-379v-491h135q63 0 98 10t57 42t29.5 79t10.5 135h107v-664h-107q-3 98 -10.5 149.5t-29.5 86.5t-57 45t-98 10h-135v-442q0 -105 92 -105h158v-106 h-696z" />
<glyph unicode="G" horiz-adv-x="1593" d="M39 678q0 160 50.5 296t137 228.5t205 144.5t252.5 52q129 0 245 -43.5t199 -132.5l66 145h94v-510h-106q-119 430 -457 430q-108 0 -190 -33t-134 -89.5t-84.5 -142.5t-45.5 -182.5t-13 -217.5q0 -245 127 -399t324 -154q168 0 291.5 80.5t123.5 173.5v159 q0 107 -94 107h-168v106h692v-106h-137q-94 0 -94 -107v-493h-106l-74 125q-83 -74 -208.5 -115t-225.5 -41q-145 0 -266 45.5t-211.5 133t-141.5 226t-51 314.5z" />
<glyph unicode="H" horiz-adv-x="1705" d="M39 0v106h156q92 0 92 105v934q0 106 -94 106h-154v107h696v-107h-155q-95 0 -95 -106v-404h734v404q0 106 -95 106h-155v107h696v-107h-154q-94 0 -94 -106v-934q0 -105 92 -105h156v-106h-696v106h157q93 0 93 105v424h-734v-424q0 -105 93 -105h157v-106h-696z" />
<glyph unicode="I" horiz-adv-x="796" d="M51 0v106h156q92 0 92 105v934q0 106 -94 106h-154v107h697v-107h-156q-94 0 -94 -106v-934q0 -105 92 -105h158v-106h-697z" />
<glyph unicode="J" horiz-adv-x="1138" d="M31 254q0 73 39 122.5t108 49.5q65 0 102 -35t37 -100q0 -60 -38 -90.5t-101 -30.5q26 -56 90 -80t125 -24q51 0 93.5 11t82 37t62 77t22.5 124v830q0 106 -94 106h-166v107h703v-107h-150q-94 0 -94 -106v-754q0 -227 -108 -329.5t-322 -102.5q-93 0 -169.5 27 t-123.5 70.5t-72.5 95t-25.5 102.5z" />
<glyph unicode="K" horiz-adv-x="1705" d="M45 0v106h154q92 0 92 105v934q0 106 -94 106h-152v107h682v-107h-143q-95 0 -95 -106v-508l582 526q31 26 31 49q0 24 -19.5 31.5t-58.5 7.5h-131v107h692v-107h-90q-89 0 -159 -40t-154 -117l-348 -316l563 -590q78 -82 174 -82h90v-106h-746v106h152q36 0 62 11t26 35 q0 9 -6 19t-14 18l-24 24t-28 29l-387 417l-207 -186v-262q0 -105 93 -105h149v-106h-686z" />
<glyph unicode="L" horiz-adv-x="1366" d="M33 0v106h160q92 0 92 105v934q0 106 -95 106h-153v107h696v-107h-155q-95 0 -95 -106v-1039h387q95 0 154 18.5t100 69t57.5 138t16.5 227.5h107v-559h-1272z" />
<glyph unicode="M" horiz-adv-x="1933" d="M35 0v106h145q54 0 76.5 30.5t22.5 101.5v897q0 62 -22 89t-77 27h-141v107h520l410 -1073l430 1073h499v-107h-73q-96 0 -131 -22.5t-35 -95.5v-895q0 -71 22 -101.5t76 -30.5h141v-106h-677v106h141q53 0 75.5 24t22.5 75v975h-4l-461 -1180h-121l-460 1225h-4v-987 q0 -71 22 -101.5t76 -30.5h143v-106h-616z" />
<glyph unicode="N" horiz-adv-x="1705" d="M35 0v106h158q92 0 92 105v934q0 106 -95 106h-155v107h495l764 -1096h4v883q0 106 -94 106h-160v107h627v-107h-147q-94 0 -94 -106v-1155h-168l-842 1196h-4v-975q0 -105 92 -105h162v-106h-635z" />
<glyph unicode="O" horiz-adv-x="1593" d="M57 678q0 110 28.5 213.5t88.5 196t146 161.5t209 109.5t268 40.5t268 -40.5t208.5 -109.5t145.5 -161.5t88.5 -196t28.5 -213.5t-28.5 -213t-88.5 -195.5t-145.5 -161t-208 -109t-268.5 -40.5t-268.5 40.5t-208.5 109t-146 161t-88.5 195.5t-28.5 213zM276 678 q0 -96 18 -183t58.5 -165.5t100 -135.5t148 -90.5t196.5 -33.5t196 33.5t147.5 90.5t100 135.5t58.5 165.5t18 183t-18 183t-58.5 166t-100 136t-147.5 91t-196 34t-196.5 -34t-148 -91t-100 -136t-58.5 -166t-18 -183z" />
<glyph unicode="P" horiz-adv-x="1366" d="M37 0v106h160q92 0 92 105v934q0 106 -94 106h-158v107h729q126 0 222.5 -17.5t175.5 -58.5t121 -116t42 -181q0 -97 -38 -170.5t-105 -117t-150 -64.5t-182 -21h-365v-379q0 -127 131 -127h121v-106h-702zM487 719h297q324 0 324 266t-324 266h-297v-532z" />
<glyph unicode="Q" horiz-adv-x="1705" d="M113 678q0 110 28.5 213.5t88.5 196t145.5 161.5t208.5 109.5t268 40.5t268 -40.5t208.5 -109.5t145.5 -161.5t88.5 -196t28.5 -213.5q0 -172 -73.5 -329t-217.5 -257q40 -44 73 -66t75 -22q39 0 71.5 22t51 56.5t29 71.5t12.5 73h106q-2 -69 -21 -132.5t-53.5 -117 t-92 -86t-130.5 -32.5q-94 0 -151 33.5t-135 113.5q-124 -47 -283 -47q-146 0 -268.5 40.5t-208 109t-145.5 161t-88.5 195.5t-28.5 213zM332 682q0 -175 58.5 -319t176.5 -220l4 4q-36 59 -36 111q0 99 75.5 161t177.5 62q59 0 112.5 -15.5t94 -40t81.5 -63t70 -75 t64 -86.5q162 162 162 481q0 96 -18 183t-58.5 166t-100 136t-147.5 91t-196 34t-196 -34t-147.5 -91t-100 -136t-58.5 -166t-18 -183zM641 223q0 -74 54 -113.5t149 -39.5q123 0 221 39q-28 48 -53.5 84.5t-63 77.5t-81 64t-89.5 23q-63 0 -100 -36.5t-37 -98.5z" />
<glyph unicode="R" horiz-adv-x="1593" d="M47 0v106h160q92 0 92 105v934q0 106 -94 106h-158v107h850q97 0 181 -19.5t152.5 -59t108 -107.5t39.5 -158q0 -64 -21.5 -116t-56.5 -87t-84.5 -60t-102 -38t-112.5 -19v-4q73 -7 125 -32t85.5 -64.5t53.5 -101.5t27.5 -134t7.5 -170q0 -66 13.5 -86t52.5 -20 q22 0 37.5 16.5t22.5 42.5t9.5 48t2.5 44v105h106q0 -146 -26 -230t-74.5 -116.5t-130.5 -32.5q-105 0 -158 52.5t-53 140.5q0 112 -9 189.5t-30.5 140t-60.5 98.5t-97 54.5t-141 18.5h-266v-442q0 -105 92 -105h160v-106h-703zM498 760h329q165 0 248.5 56t83.5 190 q0 94 -33 145.5t-113 75.5t-227 24h-288v-491z" />
<glyph unicode="S" d="M66 -10v563h106q14 -130 79 -239.5t175 -176.5t242 -67q52 0 100.5 7.5t95.5 26.5t81.5 47.5t55.5 74t21 102.5q0 68 -32.5 116t-88 75t-127 45.5t-151 32.5t-159 30t-151 44.5t-127 69.5t-88 111t-32.5 164q0 56 16 109t53 103.5t91 88t136 60t183 22.5q143 0 246 -38.5 t184 -115.5l59 123h94v-520h-106q-10 107 -52.5 192.5t-107 138.5t-141.5 81t-160 28q-169 0 -243 -69.5t-74 -180.5q0 -62 32.5 -106t88 -69t127 -42t151 -31t159 -30.5t151 -45.5t127 -70t88 -110t32.5 -161q0 -105 -41.5 -185.5t-115.5 -129.5t-171 -74t-213 -25 q-251 0 -428 180l-59 -149h-106z" />
<glyph unicode="T" horiz-adv-x="1366" d="M51 823v535h1264v-535h-107q0 80 -5 136t-19 107t-38.5 83.5t-63.5 56.5t-94 34.5t-130 10.5h-76v-1040q0 -105 92 -105h175v-106h-736v106h179q92 0 92 105v1040h-90q-85 0 -144.5 -18.5t-97 -50.5t-58.5 -87.5t-28.5 -118.5t-7.5 -153h-107z" />
<glyph unicode="U" horiz-adv-x="1593" d="M37 1251v107h684v-107h-152q-94 0 -94 -106v-703q0 -183 82.5 -271.5t261.5 -88.5q106 0 178 27.5t112 84t56.5 130t16.5 178.5v643q0 106 -95 106h-153v107h620v-107h-147q-94 0 -94 -106v-623q0 -307 -124 -435t-429 -128q-222 0 -353 111t-131 327v748q0 106 -94 106 h-145z" />
<glyph unicode="V" horiz-adv-x="1593" d="M49 1251v107h664v-107h-144q-32 0 -58 -12.5t-26 -40.5q0 -13 3.5 -26.5t10.5 -30.5t9 -25l311 -889h4l332 903q16 37 16 64q0 28 -28 42.5t-58 14.5h-139v107h596v-107h-104q-99 0 -133 -90l-439 -1171h-159l-424 1147q-22 59 -53.5 86.5t-90.5 27.5h-90z" />
<glyph unicode="W" horiz-adv-x="2048" d="M37 1251v107h573v-107h-102q-80 0 -80 -57q0 -29 14 -84l238 -872h4l283 858q4 12 -11.5 48.5t-46.5 71.5t-65 35h-101v107h592v-107h-100q-26 0 -44 -3.5t-33 -18t-15 -41.5q0 -15 6.5 -41t17.5 -61.5t13 -43.5l235 -800h4l244 817q27 89 27 127q0 29 -14.5 44t-32 18 t-48.5 3h-106v107h520v-107h-59q-54 0 -84 -25t-41 -61l-359 -1175h-163l-275 903h-4l-297 -903h-164l-334 1140q-23 75 -48.5 98t-98.5 23h-45z" />
<glyph unicode="X" horiz-adv-x="1593" d="M37 0v106h55q118 0 217 119l371 443l-334 440q-39 52 -62 77t-64 45.5t-93 20.5h-66v107h654v-107h-142q-51 0 -51 -39q0 -24 33 -65l248 -324l268 324q33 41 33 65q0 39 -53 39h-138v107h588v-107h-86q-27 0 -48.5 -3.5t-43 -16.5t-33 -19.5t-33.5 -31.5t-28 -32 t-33 -40l-313 -391l381 -500q86 -111 211 -111h79v-106h-706v106h131q74 0 74 52q0 10 -6.5 24t-14 24.5t-19 26t-14.5 19.5l-243 311l-252 -311q-4 -5 -25 -27.5t-34 -41t-13 -31.5q0 -46 92 -46h115v-106h-602z" />
<glyph unicode="Y" horiz-adv-x="1478" d="M33 1251v107h631v-107h-86q-123 0 -123 -45q0 -11 6.5 -24t19 -31t17.5 -27l270 -458l283 450q39 63 39 86q0 49 -93 49h-114v107h553v-107h-52q-49 0 -99 -34.5t-83 -88.5l-368 -598v-297q0 -72 38.5 -99.5t116.5 -27.5h115v-106h-739v106h114q78 0 117 27.5t39 99.5 v297l-397 637q-53 84 -152 84h-53z" />
<glyph unicode="Z" d="M68 0v106l880 1145h-432q-61 0 -101 -5t-75 -22.5t-55 -45t-36.5 -77t-24.5 -115.5t-13 -163h-107v535h1078v-107l-877 -1145h416q79 0 130.5 9.5t97.5 38t71 81t39.5 138.5t15.5 211h107v-584h-1114z" />
<glyph unicode="[" horiz-adv-x="681" d="M168 -356v1714h453v-90h-302v-1534h302v-90h-453z" />
<glyph unicode="\" horiz-adv-x="569" d="M2 1399h113l452 -1440h-112z" />
<glyph unicode="]" horiz-adv-x="681" d="M61 -266h301v1534h-301v90h453v-1714h-453v90z" />
<glyph unicode="^" horiz-adv-x="1228" d="M186 492l375 747h107l374 -747h-127l-301 604l-301 -604h-127z" />
<glyph unicode="_" horiz-adv-x="1024" d="M0 -154h1024v-102h-1024v102z" />
<glyph unicode="`" horiz-adv-x="681" d="M12 1378q0 28 23.5 53t52.5 25q14 0 26 -3.5t20.5 -7t21.5 -15t19 -18t23.5 -25t26.5 -27.5l256 -262h-94l-285 178q-56 35 -73 53.5t-17 48.5z" />
<glyph unicode="a" horiz-adv-x="1138" d="M45 225q0 75 38.5 129t106.5 86t137 52.5t156 45t138 48.5q45 22 61 52t16 79q0 92 -50 134t-179 42q-171 0 -240 -80q95 -16 95 -104q0 -55 -37 -82t-86 -27q-52 0 -79.5 40.5t-27.5 104.5q0 62 38 111t98.5 77t125.5 42t127 14q93 0 161 -15.5t121 -52.5t80 -104 t27 -164v-479q0 -48 13.5 -78t40.5 -30q96 0 96 174v86h96v-60q0 -160 -55 -228.5t-174 -68.5q-75 0 -121.5 42.5t-58.5 117.5q-144 -160 -363 -160q-134 0 -217.5 63.5t-83.5 192.5zM240 236q0 -80 42 -125t119 -45q67 0 136 37t115 100t46 131v188q-51 -29 -159.5 -68.5 t-143.5 -54.5q-84 -36 -119.5 -72.5t-35.5 -90.5z" />
<glyph unicode="b" horiz-adv-x="1138" d="M-51 1262v96h344v-557h4q48 90 127 139t182 49q105 0 188 -40t135 -110.5t79.5 -162t27.5 -197.5t-27.5 -197.5t-79.5 -162t-135 -110.5t-188 -40q-223 0 -330 195l-67 -174h-90v1177q0 95 -94 95h-76zM293 479q0 -58 7.5 -111t27 -106t49.5 -91.5t78.5 -62.5t111.5 -24 t112 24t79 62.5t49.5 91.5t27 106t7.5 111t-7.5 111t-27 106t-49.5 91.5t-79 62.5t-112 24t-111.5 -24t-78.5 -62.5t-49.5 -91.5t-27 -106t-7.5 -111z" />
<glyph unicode="c" horiz-adv-x="1024" d="M37 479q0 225 144 367.5t364 142.5q71 0 142 -18.5t133.5 -54.5t101.5 -97t39 -137q0 -64 -35 -102.5t-95 -38.5q-39 0 -69.5 28.5t-30.5 67.5q0 102 105 117q-23 69 -101.5 104t-159.5 35q-93 0 -162.5 -37.5t-107.5 -100t-56 -132t-18 -144.5q0 -74 17.5 -144.5 t52 -132t96 -99t140.5 -37.5q120 0 197 76t102 210h118q-21 -201 -139.5 -292t-327.5 -91q-199 0 -324.5 132t-125.5 378z" />
<glyph unicode="d" d="M59 479q0 97 27 186t79 162.5t139 117.5t198 44q101 0 195 -54.5t145 -148.5h4v359q0 117 -94 117h-107v96h375v-1188q0 -36 20 -55t56 -19h118v-96h-368v184h-4q-39 -73 -81 -117.5t-106.5 -71t-152.5 -26.5q-111 0 -198 44t-139 117.5t-79 162.5t-27 186zM254 479 q0 -183 67 -289t203 -106q84 0 146.5 32.5t98.5 89t53.5 125t17.5 148.5t-17 149t-51 125t-91.5 88.5t-133.5 32.5t-133.5 -32.5t-91.5 -88.5t-51 -125t-17 -149z" />
<glyph unicode="e" horiz-adv-x="1024" d="M45 479q0 250 124.5 380t354.5 130q120 0 207 -39.5t138 -113.5t77 -163.5t33 -205.5h-739q0 -68 6.5 -122.5t25 -108.5t49 -89.5t83 -58t122.5 -22.5q242 0 308 245h118q-70 -342 -428 -342q-230 0 -354.5 130t-124.5 380zM240 563h544q0 144 -67 237t-199 93 q-91 0 -155.5 -46t-93.5 -119t-29 -165z" />
<glyph unicode="f" horiz-adv-x="796" d="M39 0v96h137q49 0 65.5 22t16.5 72v672h-219v96h219v140q0 79 27 139t73.5 94t101 51t115.5 17q50 0 97.5 -9.5t96 -32t78.5 -67t30 -106.5q0 -55 -34.5 -86t-88.5 -31q-107 0 -107 100q0 35 23.5 56t58.5 24q-21 29 -63 42.5t-84 13.5q-63 0 -106.5 -51.5t-43.5 -129.5 v-164h227v-96h-227v-672q0 -46 32.5 -70t84.5 -24h102v-96h-612z" />
<glyph unicode="g" horiz-adv-x="1366" d="M86 -197q0 61 33.5 102.5t80 59t101.5 19.5v4q-73 0 -125.5 46.5t-52.5 119.5t53.5 128.5t126.5 69.5q-74 42 -109.5 118t-35.5 167q0 73 25.5 133t68.5 100t100.5 67.5t120.5 39.5t131 12q183 0 332 -117q95 117 209 117q87 0 141.5 -48t54.5 -134q0 -131 -120 -131 q-43 0 -69 28t-26 70q0 43 27 64.5t72 21.5q-20 33 -88 33q-39 0 -82.5 -24.5t-69.5 -57.5q57 -105 57 -219q0 -61 -30.5 -120t-85 -106t-138 -75.5t-180.5 -28.5q-73 0 -121.5 10t-71.5 19.5t-34 9.5q-41 0 -74 -31t-33 -71q0 -42 33.5 -63t83.5 -21h338q224 0 323 -63.5 t99 -192.5q0 -144 -140 -218.5t-407 -74.5q-518 0 -518 237zM238 -180q0 -39 21 -68t55.5 -46t87 -27t105 -13.5t120.5 -3.5q159 0 265.5 40.5t106.5 111.5q0 78 -51 113.5t-153 35.5h-314q-97 0 -170 -39.5t-73 -103.5zM352 625q0 -124 61 -195.5t187 -71.5t187 71.5 t61 195.5t-61 196t-187 72t-187 -72t-61 -196z" />
<glyph unicode="h" horiz-adv-x="1366" d="M39 0v96h133q49 0 65.5 22t16.5 72v977q0 51 -17 73t-65 22h-133v96h389v-563h4q62 92 153.5 143t207.5 51q158 0 243.5 -95.5t85.5 -258.5v-445q0 -50 16.5 -72t65.5 -22h123v-96h-573v96h112q49 0 65.5 22t16.5 72v459q0 111 -48.5 168t-162.5 57q-140 0 -224.5 -94.5 t-84.5 -224.5v-365q0 -50 16.5 -72t65.5 -22h125v-96h-596z" />
<glyph unicode="i" horiz-adv-x="681" d="M39 0v96h133q49 0 65.5 22t16.5 72v578q0 50 -16.5 72t-65.5 22h-133v96h389v-768q0 -50 16.5 -72t65.5 -22h131v-96h-602zM203 1266q0 45 32.5 77.5t77.5 32.5q44 0 77.5 -33t33.5 -77q0 -45 -33 -78t-78 -33q-46 0 -78 32.5t-32 78.5z" />
<glyph unicode="j" horiz-adv-x="681" d="M-111 -236q0 65 27.5 105.5t79.5 40.5q49 0 86 -27t37 -82q0 -89 -94 -104q23 -35 120 -35q96 0 127 54.5t31 193.5v858q0 50 -16.5 72t-65.5 22h-133v96h389v-1060q0 -84 -24 -147.5t-59 -97.5t-83.5 -54.5t-88 -26.5t-83.5 -6q-42 0 -84.5 12t-80 35t-61.5 62.5 t-24 88.5zM252 1266q0 45 32.5 77.5t77.5 32.5q44 0 77.5 -33t33.5 -77q0 -45 -33 -78t-78 -33q-46 0 -78 32.5t-32 78.5z" />
<glyph unicode="k" horiz-adv-x="1366" d="M43 0v96h104q62 0 82.5 21.5t20.5 72.5v977q0 95 -111 95h-96v96h381v-893l375 299q41 33 41 61q0 37 -76 37h-123v96h621v-96h-56q-45 0 -98.5 -19.5t-91.5 -49.5l-285 -230l334 -358q49 -53 98 -81t117 -28h43v-96h-602v96h113q59 0 59 37q0 14 -10.5 29.5t-28.5 33.5 l-18 17l-232 254l-180 -139v-138q0 -50 16.5 -72t65.5 -22h106v-96h-569z" />
<glyph unicode="l" horiz-adv-x="681" d="M39 0v96h133q49 0 65.5 22t16.5 72v977q0 43 -26.5 69t-55.5 26h-133v96h389v-1168q0 -50 16.5 -72t65.5 -22h131v-96h-602z" />
<glyph unicode="m" horiz-adv-x="1933" d="M39 0v96h133q49 0 65.5 22t16.5 72v578q0 50 -16.5 72t-65.5 22h-133v96h389v-176h4q47 71 88 112.5t103 68t143 26.5q102 0 173.5 -56.5t98.5 -150.5q73 104 153.5 155.5t190.5 51.5q81 0 138.5 -22.5t91 -58.5t52 -96t24.5 -120.5t6 -146.5v-355q0 -50 16.5 -72 t65.5 -22h118v-96h-553v96h97q49 0 65.5 22t16.5 72v500q0 90 -49.5 137t-133.5 47q-73 0 -138 -46t-101.5 -113.5t-36.5 -134.5v-390q0 -50 16.5 -72t65.5 -22h94v-96h-526v96h94q49 0 65.5 22t16.5 72v476q0 95 -48.5 151.5t-136.5 56.5q-73 0 -138 -47.5t-100.5 -115.5 t-35.5 -131v-390q0 -50 16.5 -72t65.5 -22h92v-96h-563z" />
<glyph unicode="n" horiz-adv-x="1366" d="M39 0v96h133q49 0 65.5 22t16.5 72v578q0 50 -16.5 72t-65.5 22h-133v96h387v-174h4q130 205 363 205q158 0 243.5 -95.5t85.5 -258.5v-445q0 -50 16.5 -72t65.5 -22h123v-96h-573v96h112q49 0 65.5 22t16.5 72v459q0 111 -48.5 168t-162.5 57q-140 0 -224.5 -94.5 t-84.5 -224.5v-365q0 -50 16.5 -72t65.5 -22h125v-96h-596z" />
<glyph unicode="o" horiz-adv-x="1138" d="M41 479q0 226 142.5 368t385.5 142t386 -142.5t143 -367.5t-143 -367.5t-386 -142.5t-385.5 142t-142.5 368zM236 479q0 -87 17 -158.5t54 -130.5t103.5 -91.5t158.5 -32.5q74 0 132 22t95.5 59.5t62 91t34.5 112.5t10 128q0 87 -17 158.5t-54 130.5t-104 92t-159 33 t-158.5 -33t-103.5 -92t-54 -130.5t-17 -158.5z" />
<glyph unicode="p" d="M-8 -338h102q92 0 92 105v989q0 106 -94 106h-100v96h368v-180h5q113 211 340 211q109 0 194.5 -42t137 -113.5t78 -160.5t26.5 -190q0 -104 -26.5 -194.5t-78 -163t-137 -114.5t-194.5 -42q-124 0 -204.5 49.5t-135.5 143.5h-5v-395q0 -105 93 -105h112v-96h-573v96z M360 479q0 -80 17 -149t51 -125t91.5 -88.5t133.5 -32.5t133.5 32.5t91.5 88.5t51 125t17 149q0 190 -69 292.5t-203 102.5q-79 0 -140.5 -32.5t-98.5 -88.5t-56 -125.5t-19 -148.5z" />
<glyph unicode="q" d="M92 483q0 101 26.5 190t78 160.5t137 113.5t194.5 42q227 0 340 -211h4v180h369v-96h-100q-94 0 -94 -106v-989q0 -105 92 -105h102v-96h-573v96h112q92 0 92 105v395h-4q-55 -94 -135.5 -143.5t-204.5 -49.5q-109 0 -194.5 42t-137 114.5t-78 163t-26.5 194.5zM287 479 q0 -80 17 -149t51 -125t91.5 -88.5t133.5 -32.5t133.5 32.5t91.5 88.5t50.5 125t16.5 149t-16.5 149t-50.5 125t-91.5 88.5t-133.5 32.5t-133.5 -32.5t-91.5 -88.5t-51 -125t-17 -149z" />
<glyph unicode="r" horiz-adv-x="1024" d="M53 862v96h389v-206h4q38 105 119.5 171t171.5 66q106 0 169 -56.5t63 -160.5q0 -62 -28 -99.5t-87 -37.5q-44 0 -79.5 26t-35.5 68q0 54 32.5 80.5t90.5 26.5q-12 57 -119 57q-92 0 -160.5 -65.5t-100 -160t-31.5 -200.5v-277q0 -94 102 -94h111v-96h-603v96h134 q48 0 64.5 21.5t16.5 72.5v578q0 51 -16.5 72.5t-64.5 21.5h-142z" />
<glyph unicode="s" horiz-adv-x="1024" d="M74 -10v397h106q23 -145 128.5 -233t252.5 -88q94 0 153.5 43.5t59.5 115.5q0 53 -38 87t-98.5 51t-134 30t-147 32t-134 48.5t-98.5 89t-38 144.5q0 74 31.5 130t85 88t116 48t132.5 16q87 0 170 -30.5t147 -86.5l37 97h92v-377h-96q-17 132 -117 216.5t-229 84.5 q-37 0 -69 -7.5t-62 -24.5t-47 -50.5t-17 -81.5q0 -49 38 -81t98.5 -48t134 -29t147 -32t134 -48t98.5 -86.5t38 -138.5q0 -62 -21.5 -113t-58 -84.5t-86 -56.5t-103.5 -33t-112 -10q-212 0 -348 127l-39 -106h-106z" />
<glyph unicode="t" horiz-adv-x="796" d="M53 862v96q47 7 84 27t62 52t42.5 67.5t28.5 81.5t16.5 85t8.5 87h106v-400h291v-96h-291v-676q0 -63 25 -91.5t78 -28.5q64 0 103.5 55.5t39.5 144.5v119h96v-88q0 -161 -61.5 -244.5t-216.5 -83.5q-65 0 -113 20t-74 54.5t-38.5 74t-12.5 85.5v659h-174z" />
<glyph unicode="u" horiz-adv-x="1366" d="M39 862v96h379v-649q0 -111 48.5 -168t162.5 -57q140 0 224.5 94.5t84.5 224.5v365q0 50 -16.5 72t-65.5 22h-125v96h381v-768q0 -50 16.5 -72t65.5 -22h133v-96h-387v174h-4q-130 -205 -363 -205q-164 0 -246.5 78t-82.5 244v477q0 50 -16.5 72t-65.5 22h-123z" />
<glyph unicode="v" horiz-adv-x="1138" d="M27 862v96h487v-96h-78q-88 0 -88 -35q0 -8 3.5 -19.5t8.5 -23t15 -34t18 -43.5l197 -502h4l215 524q27 69 27 92q0 41 -115 41h-55v96h446v-96h-31q-49 0 -75.5 -20t-44.5 -62l-340 -790h-113l-332 796q-16 38 -43.5 57t-75.5 19h-30z" />
<glyph unicode="w" horiz-adv-x="1705" d="M33 862v96h465v-96h-76q-37 0 -51.5 -8.5t-14.5 -30.5q0 -18 19 -65l203 -547h4l219 537q-52 114 -127 114h-53v96h483v-96h-84q-41 0 -57.5 -9t-16.5 -28q0 -10 4 -21t10.5 -25.5t10.5 -26.5l200 -555h5l208 559q17 46 17 65t-34 30t-81 11h-41v96h428v-96h-31 q-91 0 -126 -96l-310 -776h-119l-239 596l-236 -596h-114l-324 805q-14 35 -40.5 51t-76.5 16h-24z" />
<glyph unicode="x" d="M35 0v96h31q46 0 88 24t96 79l276 282l-258 277q-52 57 -98 80.5t-111 23.5h-24v96h545v-96h-60q-29 0 -43 -1.5t-24.5 -9t-10.5 -22.5q0 -18 27 -45l166 -182l162 176q34 37 34 58q0 16 -18.5 21t-58.5 5h-64v96h488v-96h-23q-63 0 -108.5 -23.5t-100.5 -80.5l-235 -244 l288 -315q51 -55 94 -79t91 -24h33v-96h-562v96h84q84 0 84 31q0 21 -49 78l-174 190l-184 -200q-49 -53 -49 -74q0 -14 21 -19.5t79 -5.5h76v-96h-508z" />
<glyph unicode="y" d="M37 -225q0 85 38.5 123.5t88.5 38.5q46 0 78 -28.5t32 -78.5q0 -94 -122 -94q6 -29 41 -51.5t79 -22.5q136 0 203 135l98 199l-346 758q-27 59 -59 83.5t-88 24.5h-43v96h530v-96h-45q-74 0 -99.5 -8t-25.5 -33q0 -7 2 -16.5t8.5 -25.5t11 -27.5t15.5 -37.5t17 -40 l202 -479l240 553q14 37 14 65q0 49 -125 49h-57v96h487v-96h-57q-81 0 -139 -129l-428 -958q-41 -93 -126.5 -151t-191.5 -58q-94 0 -163.5 58t-69.5 151z" />
<glyph unicode="z" horiz-adv-x="1024" d="M66 0v96l665 766h-338q-108 0 -149 -68.5t-47 -234.5h-97v399h844v-96l-672 -766h349q51 0 86.5 6t62.5 23t42.5 39.5t26 63.5t15.5 87t8 117h96v-432h-892z" />
<glyph unicode="{" horiz-adv-x="681" d="M29 504q132 28 178.5 82.5t46.5 161.5v356q0 74 20 127.5t53 85.5t86 50.5t108 25t130 6.5v-41q-137 -27 -191 -88t-54 -174v-318q0 -61 -9.5 -101.5t-35 -76t-75 -58t-126.5 -36.5v-4q77 -14 126 -36t75.5 -57.5t35.5 -76.5t9 -103v-319q0 -113 54.5 -175.5t190.5 -86.5 v-41q-75 0 -130 6.5t-108 25t-86 51t-53 86.5t-20 128v358q0 107 -46.5 160.5t-178.5 81.5z" />
<glyph unicode="|" horiz-adv-x="454" d="M172 -512v2048h111v-2048h-111z" />
<glyph unicode="}" horiz-adv-x="681" d="M31 -352q136 24 190.5 86.5t54.5 175.5v319q0 62 9 103t35.5 76.5t75.5 57.5t126 36v4q-77 14 -126.5 36.5t-75 58t-35 76t-9.5 101.5v318q0 113 -54 174t-191 88v41q75 0 130 -6.5t108 -25t86 -50.5t53 -85.5t20 -127.5v-356q0 -107 46.5 -161.5t178.5 -82.5 q-132 -28 -178.5 -81.5t-46.5 -160.5v-358q0 -74 -20 -128t-53 -86.5t-86 -51t-108 -25t-130 -6.5v41z" />
<glyph unicode="~" horiz-adv-x="1228" d="M141 430q92 176 256 176q83 0 228 -65q14 -6 44.5 -20t47.5 -21t40.5 -16t42 -13t34.5 -4q29 0 55 11.5t49.5 36t38 44.5t37.5 55l73 -86q-23 -32 -38.5 -52t-41 -46.5t-49.5 -41t-57 -25.5t-70 -11q-52 0 -99 17t-109 51q-128 72 -236 72q-61 0 -101.5 -41t-70.5 -107z " />
<glyph unicode="&#xa1;" horiz-adv-x="681" d="M227 872q0 50 32 82.5t83 32.5t83 -32.5t32 -82.5t-32 -82t-83 -32t-83 32t-32 82zM236 -283q0 13 12 152.5t28 330t23 302.5q1 17 2 49.5t2 48.5h86q1 -16 2 -48.5t2 -49.5q7 -112 23 -302.5t28.5 -330t12.5 -152.5q0 -63 -26.5 -107t-84.5 -44t-84 44t-26 107z" />
<glyph unicode="&#xa2;" d="M164 481q0 224 142 366t366 142q78 0 145 -20l101 194h106l-117 -227q82 -38 131 -102t49 -152q0 -64 -35 -102.5t-94 -38.5q-39 0 -69.5 28.5t-30.5 67.5q0 102 105 117q-14 61 -97 104l-377 -731q67 -61 170 -61q250 0 304 286h118q-25 -194 -134 -288.5t-306 -94.5 q-124 0 -211 41l-113 -219h-106l135 262q-90 65 -136 175t-46 253zM358 477q0 -154 68 -270l348 680q-41 6 -72 6q-90 0 -158 -32.5t-107.5 -91t-59 -131.5t-19.5 -161z" />
<glyph unicode="&#xa3;" d="M90 78q102 80 172 182t70 209q0 52 -13 92h-229v103h205q-29 42 -41 60t-35 59.5t-33 78.5t-10 76q0 67 29.5 123t76.5 94t108 64.5t123 38.5t122 12q66 0 128.5 -7.5t130.5 -29.5t118.5 -55.5t83 -90t32.5 -129.5q0 -58 -38.5 -93.5t-96.5 -35.5q-57 0 -90 28.5 t-33 86.5q0 53 24 79t58 26q0 46 -93 82t-165 36q-313 0 -313 -223q0 -21 6.5 -42.5t14.5 -36.5t23 -42.5t24 -44.5q15 -27 30.5 -64.5t22.5 -49.5h286v-103h-264q0 -65 -13 -117.5t-40 -95.5t-55.5 -73.5t-73.5 -69.5v-4q103 49 178 49q79 0 205 -62q120 -63 180 -63 q49 0 83 26t49.5 69.5t21.5 84.5t6 88h96q0 -424 -282 -424q-77 0 -232 64q-157 61 -239 61q-133 0 -261 -117z" />
<glyph unicode="&#xa4;" d="M117 287l114 116q-114 119 -114 314q0 194 114 313l-114 117l78 78l114 -113q134 113 316 113q181 0 315 -113l115 113l78 -78l-115 -117q115 -120 115 -313q0 -194 -115 -314l115 -116l-78 -78l-115 113q-134 -113 -315 -113q-182 0 -316 113l-114 -113zM227 717 q0 -168 117.5 -287t280.5 -119t280 119t117 287t-117 286.5t-280 118.5t-280.5 -118.5t-117.5 -286.5z" />
<glyph unicode="&#xa5;" d="M-14 1137v102h575v-102h-117q-39 0 -55 -7t-16 -26q0 -5 2 -11.5t6.5 -15t8 -15t11 -19t11.5 -19.5l245 -416l271 430q22 33 22 56q0 26 -24.5 34.5t-89.5 8.5h-74v102h504v-102h-56q-83 0 -151 -107l-115 -180h141v-102h-206l-86 -142h198v-102h-272v-307q0 -51 17 -73 t65 -22h162v-102h-674v102h162q48 0 64.5 22t16.5 73v307h-276v102h205l-88 142h-209v102h143l-139 207q-54 80 -133 80h-49z" />
<glyph unicode="&#xa6;" horiz-adv-x="454" d="M172 358h111v-716h-111v716zM172 666v716h111v-716h-111z" />
<glyph unicode="&#xa7;" d="M133 522q0 216 232 293q-146 74 -146 240q0 87 37 155t99 108t136.5 60.5t157.5 20.5q62 0 124 -14t119 -43t92.5 -80.5t35.5 -118.5q0 -64 -39 -100.5t-104 -36.5q-53 0 -85 30t-32 82q0 97 98 113q-27 32 -87 48.5t-114 16.5q-50 0 -96 -8.5t-91 -28t-72 -58.5t-27 -93 q0 -65 41 -114t107 -79.5t145.5 -56.5t159.5 -55.5t146 -67t107 -99.5t41 -144q0 -101 -65 -172.5t-168 -110.5q166 -92 166 -264q0 -83 -28 -149t-74 -108.5t-110.5 -70.5t-132.5 -39.5t-145 -11.5q-62 0 -125 15t-121.5 44t-95.5 81t-37 118q0 71 40 111t110 40 q55 0 93 -39t38 -94q0 -48 -29 -80.5t-76 -35.5q34 -28 95.5 -43t117.5 -15q62 0 116 11t104 35.5t79 72t29 113.5q0 54 -26 96.5t-70.5 71.5t-102 53t-121 44.5t-127 42t-121 50t-102 63t-70.5 86t-26 115.5zM270 547q0 -56 29.5 -87t85.5 -52l244 -91q7 -2 43 -17.5 t68 -27.5t40 -12q47 0 124 62t77 137q0 48 -19 80t-65 53l-317 139q-78 35 -103 35q-21 0 -55 -16.5t-68.5 -43.5t-59 -70t-24.5 -89z" />
<glyph unicode="&#xa8;" horiz-adv-x="681" d="M23 1233q0 46 32 77t78 31t78.5 -31.5t32.5 -76.5q0 -46 -32.5 -77.5t-78.5 -31.5t-78 31.5t-32 77.5zM438 1233q0 45 32.5 76.5t78.5 31.5t78 -31t32 -77t-32 -77.5t-78 -31.5t-78.5 31.5t-32.5 77.5z" />
<glyph unicode="&#xa9;" horiz-adv-x="1638" d="M115 678q0 195 94 361t256.5 263t353.5 97q192 0 354.5 -96.5t256.5 -262.5t94 -362q0 -195 -94 -360.5t-256.5 -262t-354.5 -96.5q-143 0 -273.5 57t-225 153t-150 229.5t-55.5 279.5zM221 678q0 -125 48 -242t128.5 -203.5t191 -139t230.5 -52.5q160 0 298.5 88.5 t219 235t80.5 313.5t-80 314t-218.5 236t-299.5 89q-160 0 -298.5 -89t-219 -236t-80.5 -314zM424 694q0 54 16.5 109t53 108t88 94t127.5 66t165 25q52 0 96 -6.5t63 -12t57 -18.5q45 -14 45 -43v-146h-31q-3 36 -17 67.5t-40 60t-72.5 45t-108.5 16.5q-146 0 -221.5 -97 t-77.5 -257q-2 -174 77.5 -277.5t238.5 -103.5q183 0 254 176h32l-34 -144q0 -16 -12 -23t-42 -16q-105 -36 -219 -36q-91 0 -168.5 23.5t-138.5 71.5t-96 129.5t-35 188.5z" />
<glyph unicode="&#xaa;" horiz-adv-x="684" d="M-6 811q0 45 25 77.5t69.5 51.5t89.5 31.5t101.5 27.5t89.5 29q43 23 43 78q0 54 -29 76t-113 22q-36 0 -56.5 -1.5t-50.5 -11t-48 -28.5q65 -10 65 -61q0 -34 -25.5 -50t-58.5 -16q-34 0 -51.5 23.5t-17.5 62.5q0 49 43.5 84t98.5 49.5t110 14.5q125 0 189 -45t64 -158 v-287q0 -57 35 -57q60 0 60 96v51h65v-34q0 -97 -35.5 -138t-113.5 -41q-95 0 -125 97q-81 -97 -228 -97q-88 0 -142 38t-54 116zM129 817q0 -48 23 -71t73 -23q69 0 128 46t59 108v112q-22 -14 -50 -25t-70.5 -24.5t-70.5 -24.5q-53 -21 -72.5 -43t-19.5 -55z" />
<glyph unicode="&#xab;" horiz-adv-x="1024" d="M176 477q0 26 42 95.5t94.5 146.5t64.5 100h112q-6 -14 -46.5 -98t-76.5 -159.5t-36 -82.5q0 -3 36.5 -79.5t76.5 -161t46 -97.5h-112q-2 2 -30.5 44.5t-53 80t-53.5 84t-46.5 80.5t-17.5 47zM535 477q0 26 42 95.5t94.5 146.5t63.5 100h113q-6 -15 -47 -98.5t-77 -159 t-36 -82.5q0 -3 36.5 -79.5t77 -161t46.5 -97.5h-113q0 1 -30 45t-53.5 80t-53 83.5t-46.5 81t-17 46.5z" />
<glyph unicode="&#xac;" horiz-adv-x="1228" d="M135 610v111h959v-504h-111v393h-848z" />
<glyph unicode="&#xad;" horiz-adv-x="624" d="M47 406v147h531v-147h-531z" />
<glyph unicode="&#xae;" horiz-adv-x="1638" d="M115 678q0 195 94 361t256.5 263t353.5 97q192 0 354.5 -96.5t256.5 -262.5t94 -362q0 -195 -94 -360.5t-256.5 -262t-354.5 -96.5q-143 0 -273.5 57t-225 153t-150 229.5t-55.5 279.5zM221 678q0 -125 48 -242t128.5 -203.5t191 -139t230.5 -52.5q160 0 298.5 88.5 t219 235t80.5 313.5t-80 314t-218.5 236t-299.5 89q-160 0 -298.5 -89t-219 -236t-80.5 -314zM483 303v33q81 9 92 20t11 72v10v502v10q0 26 -0.5 37.5t-3 22.5t-7.5 16q-12 12 -92 21v26h361q102 0 172.5 -48t70.5 -140q0 -80 -45.5 -136.5t-121.5 -82.5l120 -168 q43 -58 89 -107t77 -69v-19h-123q-21 0 -40.5 14t-43 47.5t-45.5 68.5t-60.5 97t-74.5 115h-108v-207q0 -70 12 -82q11 -11 79 -19q7 -1 11 -1v-33h-330zM711 682h98q75 0 114.5 52t39.5 143q0 83 -45 121t-115 38h-92v-354z" />
<glyph unicode="&#xaf;" horiz-adv-x="681" d="M0 1176v120h649v-120h-649z" />
<glyph unicode="&#xb0;" horiz-adv-x="819" d="M117 977q0 123 85 208t208 85t207.5 -85t84.5 -208t-84.5 -208t-207.5 -85t-208 85t-85 208zM199 977q0 -93 60 -157t151 -64t151 64t60 157t-60 157t-151 64t-151 -64t-60 -157z" />
<glyph unicode="&#xb1;" horiz-adv-x="1228" d="M135 0v111h959v-111h-959zM135 516v111h424v331h111v-331h424v-111h-424v-332h-111v332h-424z" />
<glyph unicode="&#xb2;" horiz-adv-x="749" d="M31 502q0 91 28 156t73 100.5t99.5 60t109 41t99.5 36t73 54.5t28 86q0 73 -59 116.5t-140 43.5q-42 0 -79.5 -8.5t-72.5 -35t-47 -67.5q93 0 93 -73q0 -31 -23.5 -50.5t-58.5 -19.5q-47 0 -70 28.5t-23 73.5q0 62 30.5 108t81 70.5t106 36t116.5 11.5q124 0 210.5 -61.5 t86.5 -170.5q0 -61 -26.5 -105t-70 -69t-97 -42t-110 -31.5t-106.5 -31.5t-89 -47t-54 -73q45 25 76 25q13 0 34.5 -5t57 -16t55.5 -16q126 -33 173 -33q110 0 110 156h74q0 -63 -8.5 -109.5t-30.5 -87t-65 -61.5t-107 -21q-32 0 -61 10t-69.5 33t-47.5 27q-100 49 -154 49 q-34 0 -53 -27t-19 -61h-73z" />
<glyph unicode="&#xb3;" horiz-adv-x="749" d="M39 692q0 40 26 65t68 25q37 0 58.5 -19t21.5 -52q0 -30 -26.5 -47t-61.5 -17q13 -41 75 -62.5t113 -21.5q54 0 94.5 6t80 21.5t60.5 48.5t21 82q0 145 -233 145h-49v74h41q219 0 219 117q0 68 -48.5 103.5t-127.5 35.5q-120 0 -205 -59q67 -9 67 -72q0 -30 -22 -51 t-55 -21q-42 0 -62 25t-20 65q0 50 33.5 88.5t85 58.5t104 30t100.5 10q55 0 105.5 -10.5t96 -33t72.5 -63t27 -94.5q0 -136 -188 -162v-2q80 0 145.5 -56.5t65.5 -139.5q0 -66 -34.5 -112t-94 -68t-118.5 -31t-128 -9q-54 0 -105.5 11t-98 33.5t-75 63.5t-28.5 95z" />
<glyph unicode="&#xb4;" horiz-adv-x="681" d="M168 1098l256 262q9 9 26.5 27.5t23.5 25t19 18t21.5 15t20.5 7t26 3.5q29 0 52.5 -25t23.5 -53q0 -30 -17 -48.5t-73 -53.5l-285 -178h-94z" />
<glyph unicode="&#xb5;" horiz-adv-x="1366" d="M39 -338h123q49 0 65.5 22t16.5 72v1012q0 50 -16.5 72t-65.5 22h-123v96h379v-649q0 -111 48.5 -168t162.5 -57q140 0 224.5 94.5t84.5 224.5v365q0 50 -16.5 72t-65.5 22h-125v96h381v-768q0 -50 16.5 -72t65.5 -22h133v-96h-387v174h-4q-130 -205 -363 -205 q-90 0 -155 33v-436h-379v96z" />
<glyph unicode="&#xb6;" horiz-adv-x="1228" d="M164 936q0 93 24.5 168.5t74.5 133t131.5 89t189.5 31.5h499v-45q-50 0 -112 -22t-62 -56v-1643h-102v1704h-121v-1704h-102v924q-212 0 -316 114t-104 306z" />
<glyph unicode="&#xb7;" horiz-adv-x="624" d="M197 479q0 50 31.5 82.5t82.5 32.5t83 -32.5t32 -82.5t-32 -82t-83 -32t-82.5 32t-31.5 82z" />
<glyph unicode="&#xb8;" horiz-adv-x="681" d="M100 -397l29 65q55 -22 109 -22q135 0 135 80q0 33 -28 53t-66 20q-39 0 -66 -10l-23 12l86 199h76l-55 -131q25 10 63 10q69 0 119.5 -36t50.5 -97q0 -47 -21 -83t-56 -56.5t-76 -30.5t-86 -10q-110 0 -191 37z" />
<glyph unicode="&#xb9;" horiz-adv-x="749" d="M125 508v74h84q57 0 78.5 11t21.5 46v430h-184v74q202 0 246 127h78v-619q0 -44 18.5 -56.5t64.5 -12.5h93v-74h-500z" />
<glyph unicode="&#xba;" horiz-adv-x="684" d="M0 963q0 136 92.5 221.5t251.5 85.5q157 0 249.5 -85.5t92.5 -221.5q0 -135 -92.5 -220.5t-249.5 -85.5q-158 0 -251 85.5t-93 220.5zM135 963q0 -240 209 -240q113 0 161.5 66t45.5 174q0 241 -207 241q-209 0 -209 -241z" />
<glyph unicode="&#xbb;" horiz-adv-x="1024" d="M176 141q6 13 46.5 97.5t77 161t36.5 79.5q0 7 -36 82.5t-77 159t-47 98.5h113q11 -23 63.5 -100t94.5 -146.5t42 -95.5q0 -13 -17 -46.5t-46.5 -81t-53 -83.5t-53.5 -80t-30 -45h-113zM535 141q6 13 46 97.5t76.5 161t36.5 79.5q0 7 -36 82.5t-76.5 159.5t-46.5 98h112 q12 -23 64.5 -100t94.5 -146.5t42 -95.5q0 -13 -17.5 -47t-46.5 -80.5t-53.5 -84t-53 -80t-30.5 -44.5h-112z" />
<glyph unicode="&#xbc;" horiz-adv-x="1875" d="M199 508v74h84q57 0 78.5 11t21.5 46v430h-184v74q201 0 245 127h78v-619q0 -44 19 -56.5t65 -12.5h92v-74h-499zM489 -31l900 1301h122l-899 -1301h-123zM1042 213v66l467 483h99v-475h157v-74h-157v-88q0 -28 21.5 -39.5t72.5 -11.5h63v-74h-462v74h63q58 0 80 11.5 t22 35.5v92h-426zM1145 287h323v334z" />
<glyph unicode="&#xbd;" horiz-adv-x="1875" d="M199 508v74h84q57 0 78.5 11t21.5 46v430h-184v74q201 0 245 127h78v-619q0 -44 19 -56.5t65 -12.5h92v-74h-499zM438 -31l899 1301h123l-899 -1301h-123zM1094 -18q0 91 28 156t73 100.5t99.5 60t109 41t99.5 36t73 54.5t28 86q0 73 -59 116.5t-140 43.5 q-42 0 -79.5 -8.5t-72.5 -35t-47 -67.5q92 0 92 -73q0 -32 -23 -51t-58 -19q-47 0 -70 28.5t-23 73.5q0 62 30.5 108t81 70.5t106 36t116.5 11.5q124 0 210.5 -61.5t86.5 -170.5q0 -61 -26.5 -105t-70 -69t-97 -42t-110 -31.5t-106.5 -31.5t-89 -47t-54 -73q43 24 76 24 q13 0 34.5 -5t57 -16t55.5 -16q122 -32 172 -32q111 0 111 155h74q0 -63 -8.5 -109.5t-30.5 -86.5t-65 -61t-107 -21q-33 0 -61.5 9.5t-69.5 33t-47 26.5q-102 50 -154 50q-34 0 -53 -27t-19 -61h-73z" />
<glyph unicode="&#xbe;" horiz-adv-x="1875" d="M119 692q0 40 26 65t68 25q37 0 58.5 -19t21.5 -52q0 -30 -26.5 -47t-61.5 -17q13 -41 75 -62.5t113 -21.5q54 0 94.5 6t80 21.5t60.5 48.5t21 82q0 145 -233 145h-49v74h41q219 0 219 117q0 68 -48.5 103.5t-127.5 35.5q-120 0 -205 -59q67 -9 67 -72q0 -30 -22 -51 t-55 -21q-42 0 -62 25t-20 65q0 50 33.5 88.5t85 58.5t104 30t100.5 10q55 0 105.5 -10.5t96 -33t72.5 -63t27 -94.5q0 -136 -188 -162v-2q80 0 145.5 -56.5t65.5 -139.5q0 -66 -34.5 -112t-94 -68t-118.5 -31t-128 -9q-54 0 -105.5 11t-98 33.5t-75 63.5t-28.5 95zM510 -31 l899 1301h123l-899 -1301h-123zM1042 213v66l467 483h99v-475h157v-74h-157v-88q0 -28 21.5 -39.5t72.5 -11.5h63v-74h-462v74h63q58 0 80 11.5t22 35.5v92h-426zM1145 287h323v334z" />
<glyph unicode="&#xbf;" horiz-adv-x="1024" d="M68 -80q0 70 24 128t62.5 98.5t85 76t93 68.5t85 67t62.5 80t24 101v63h104v-82q-1 -60 -21 -113t-51 -93t-68 -77.5t-74 -73t-67.5 -72.5t-49.5 -83.5t-19 -97.5q0 -112 80.5 -173t196.5 -61q74 0 146 23.5t123.5 73t51.5 112.5q0 25 -6 49q-46 -28 -88 -28t-70 29 t-28 79q0 53 30 84t90 31q85 0 128.5 -61.5t43.5 -149.5q0 -74 -27 -134t-71.5 -100t-104.5 -67t-124 -39t-131 -12q-83 0 -158.5 22t-137 64.5t-98 111.5t-36.5 156zM438 872q0 50 32 82.5t83 32.5t83 -32.5t32 -82.5t-32 -82t-83 -32t-83 32t-32 82z" />
<glyph unicode="&#xc0;" horiz-adv-x="1593" d="M39 0v106h84q64 0 94.5 28.5t56.5 94.5l439 1139h168l448 -1159q40 -103 146 -103h77v-106h-649v106h125q60 0 83.5 11t23.5 37q0 11 -5.5 31.5t-12 36t-16 39t-11.5 28.5l-62 166h-528l-64 -187q-6 -18 -16 -45.5t-14.5 -42t-4.5 -26.5q0 -29 23 -38.5t96 -9.5h113v-106 h-594zM469 1733q0 28 23.5 52.5t52.5 24.5q14 0 26 -3.5t20.5 -7t21.5 -15t19 -18t23.5 -25t26.5 -27.5l256 -262h-94l-285 178q-56 35 -73 54t-17 49zM539 561h446l-225 584z" />
<glyph unicode="&#xc1;" horiz-adv-x="1593" d="M39 0v106h84q64 0 94.5 28.5t56.5 94.5l439 1139h168l448 -1159q40 -103 146 -103h77v-106h-649v106h125q60 0 83.5 11t23.5 37q0 11 -5.5 31.5t-12 36t-16 39t-11.5 28.5l-62 166h-528l-64 -187q-6 -18 -16 -45.5t-14.5 -42t-4.5 -26.5q0 -29 23 -38.5t96 -9.5h113v-106 h-594zM539 561h446l-225 584zM625 1452l256 262q9 9 26.5 27.5t23.5 25t19 18t21.5 15t20.5 7t26 3.5q29 0 52.5 -24.5t23.5 -52.5q0 -30 -17 -49t-73 -54l-285 -178h-94z" />
<glyph unicode="&#xc2;" horiz-adv-x="1593" d="M39 0v106h84q64 0 94.5 28.5t56.5 94.5l439 1139h168l448 -1159q40 -103 146 -103h77v-106h-649v106h125q60 0 83.5 11t23.5 37q0 11 -5.5 31.5t-12 36t-16 39t-11.5 28.5l-62 166h-528l-64 -187q-6 -18 -16 -45.5t-14.5 -42t-4.5 -26.5q0 -29 23 -38.5t96 -9.5h113v-106 h-594zM457 1450l254 346h141l254 -346h-88l-236 211l-237 -211h-88zM539 561h446l-225 584z" />
<glyph unicode="&#xc3;" horiz-adv-x="1593" d="M39 0v106h84q64 0 94.5 28.5t56.5 94.5l439 1139h168l448 -1159q40 -103 146 -103h77v-106h-649v106h125q60 0 83.5 11t23.5 37q0 11 -5.5 31.5t-12 36t-16 39t-11.5 28.5l-62 166h-528l-64 -187q-6 -18 -16 -45.5t-14.5 -42t-4.5 -26.5q0 -29 23 -38.5t96 -9.5h113v-106 h-594zM432 1499q19 98 77.5 161.5t152.5 63.5q55 0 155 -49t141 -49q39 0 65.5 31.5t39.5 73.5h70q-24 -102 -74 -160q-60 -70 -156 -70q-66 0 -162 49q-92 49 -131 49q-35 0 -71 -33t-39 -67h-68zM539 561h446l-225 584z" />
<glyph unicode="&#xc4;" horiz-adv-x="1593" d="M39 0v106h84q64 0 94.5 28.5t56.5 94.5l439 1139h168l448 -1159q40 -103 146 -103h77v-106h-649v106h125q60 0 83.5 11t23.5 37q0 11 -5.5 31.5t-12 36t-16 39t-11.5 28.5l-62 166h-528l-64 -187q-6 -18 -16 -45.5t-14.5 -42t-4.5 -26.5q0 -29 23 -38.5t96 -9.5h113v-106 h-594zM479 1587q0 46 32.5 77.5t78.5 31.5t78 -31.5t32 -77.5t-32 -77t-78 -31t-78.5 31.5t-32.5 76.5zM539 561h446l-225 584zM895 1587q0 46 32.5 77.5t78.5 31.5t78 -31.5t32 -77.5t-32 -77t-78 -31t-78.5 31.5t-32.5 76.5z" />
<glyph unicode="&#xc5;" horiz-adv-x="1593" d="M39 0v106h84q64 0 94.5 28.5t56.5 94.5l439 1139h168l448 -1159q40 -103 146 -103h77v-106h-649v106h125q60 0 83.5 11t23.5 37q0 11 -5.5 31.5t-12 36t-16 39t-11.5 28.5l-62 166h-528l-64 -187q-6 -18 -16 -45.5t-14.5 -42t-4.5 -26.5q0 -29 23 -38.5t96 -9.5h113v-106 h-594zM539 561h446l-225 584zM590 1657q0 87 61 148t148 61t148 -61t61 -148q0 -86 -60.5 -146.5t-148.5 -60.5t-148.5 60.5t-60.5 146.5zM674 1657q0 -53 35.5 -89t89.5 -36t89.5 36t35.5 89t-36 90t-89 37t-89 -37t-36 -90z" />
<glyph unicode="&#xc6;" horiz-adv-x="1933" d="M14 0v106q45 0 90 36.5t74 90.5l500 926q16 32 16 49q0 43 -57 43h-158v107h1342v-514h-107q-2 64 -5.5 104t-12 88t-22.5 76.5t-38 58t-58 45t-83 25.5t-113 10h-315v-491h100q50 0 81.5 7.5t53 22.5t32.5 49t16 75.5t8 113.5h106v-668h-106q-2 66 -5.5 107.5t-12 77.5 t-20.5 54.5t-33.5 32t-49.5 17.5t-70 4h-100v-547h315q64 0 112.5 10t83 26t58.5 47t38 61t22.5 81.5t12 95.5t5.5 114h107v-541h-1147v106h102q92 0 92 105v342h-381l-170 -336q-1 -3 -7.5 -14.5t-9 -17t-5 -15t-2.5 -18.5q0 -19 22 -32.5t58 -13.5h88v-106h-447zM541 659 h327v603h-4z" />
<glyph unicode="&#xc7;" horiz-adv-x="1366" d="M61 678q0 157 41.5 287t122.5 227.5t210 152t294 54.5q223 0 410 -162l53 131h96v-539h-106q-23 213 -141.5 336t-290.5 123q-126 0 -218 -45.5t-146 -129t-79.5 -191.5t-25.5 -244q0 -97 15.5 -183.5t51 -165.5t88.5 -135.5t133.5 -90t180.5 -33.5q191 0 298.5 114.5 t125.5 307.5h131q-17 -261 -165 -393t-397 -138l-38 -92q25 10 63 10q69 0 119.5 -36t50.5 -97q0 -62 -37 -104t-89 -59t-114 -17q-109 0 -190 37l29 65q55 -22 108 -22q135 0 135 80q0 33 -28 53t-66 20t-65 -10l-23 12l70 160q-125 5 -226.5 45.5t-171.5 106.5t-117.5 156 t-69.5 192t-22 217z" />
<glyph unicode="&#xc8;" horiz-adv-x="1478" d="M33 0v106h151q92 0 92 105v934q0 106 -94 106h-143v107h1307v-512h-107q-2 63 -5.5 103t-12 87.5t-22.5 76t-38 58t-58 45t-83 25.5t-113 10h-432v-491h170q50 0 81.5 7.5t53 22.5t32.5 49t16 75.5t8 113.5h106v-668h-106q-2 66 -5.5 107.5t-12 77.5t-20.5 54.5t-33.5 32 t-49.5 17.5t-70 4h-170v-547h432q45 0 82 4t67 14.5t53.5 22t41.5 32t31 40t22.5 50t15.5 57t9.5 67t5.5 74.5t4 84h107v-551h-1313zM459 1733q0 28 23.5 52.5t52.5 24.5q14 0 26 -3.5t20.5 -7t21.5 -15t19 -18t23.5 -25t26.5 -27.5l256 -262h-94l-285 178q-56 35 -73 54 t-17 49z" />
<glyph unicode="&#xc9;" horiz-adv-x="1478" d="M33 0v106h151q92 0 92 105v934q0 106 -94 106h-143v107h1307v-512h-107q-2 63 -5.5 103t-12 87.5t-22.5 76t-38 58t-58 45t-83 25.5t-113 10h-432v-491h170q50 0 81.5 7.5t53 22.5t32.5 49t16 75.5t8 113.5h106v-668h-106q-2 66 -5.5 107.5t-12 77.5t-20.5 54.5t-33.5 32 t-49.5 17.5t-70 4h-170v-547h432q45 0 82 4t67 14.5t53.5 22t41.5 32t31 40t22.5 50t15.5 57t9.5 67t5.5 74.5t4 84h107v-551h-1313zM614 1452l256 262q8 8 26.5 27.5t24 25t19 17.5t22 15.5t20.5 7t26 3.5q29 0 52 -24.5t23 -52.5q0 -30 -17 -49t-73 -54l-284 -178h-95z " />
<glyph unicode="&#xca;" horiz-adv-x="1478" d="M33 0v106h151q92 0 92 105v934q0 106 -94 106h-143v107h1307v-512h-107q-2 63 -5.5 103t-12 87.5t-22.5 76t-38 58t-58 45t-83 25.5t-113 10h-432v-491h170q50 0 81.5 7.5t53 22.5t32.5 49t16 75.5t8 113.5h106v-668h-106q-2 66 -5.5 107.5t-12 77.5t-20.5 54.5t-33.5 32 t-49.5 17.5t-70 4h-170v-547h432q45 0 82 4t67 14.5t53.5 22t41.5 32t31 40t22.5 50t15.5 57t9.5 67t5.5 74.5t4 84h107v-551h-1313zM446 1450l254 346h142l254 -346h-88l-236 211l-237 -211h-89z" />
<glyph unicode="&#xcb;" horiz-adv-x="1478" d="M33 0v106h151q92 0 92 105v934q0 106 -94 106h-143v107h1307v-512h-107q-2 63 -5.5 103t-12 87.5t-22.5 76t-38 58t-58 45t-83 25.5t-113 10h-432v-491h170q50 0 81.5 7.5t53 22.5t32.5 49t16 75.5t8 113.5h106v-668h-106q-2 66 -5.5 107.5t-12 77.5t-20.5 54.5t-33.5 32 t-49.5 17.5t-70 4h-170v-547h432q45 0 82 4t67 14.5t53.5 22t41.5 32t31 40t22.5 50t15.5 57t9.5 67t5.5 74.5t4 84h107v-551h-1313zM469 1587q0 46 32.5 77.5t78.5 31.5t78 -31.5t32 -77.5t-32 -77t-78 -31t-78.5 31.5t-32.5 76.5zM885 1587q0 46 32 77.5t78 31.5 t78.5 -31.5t32.5 -77.5q0 -45 -32.5 -76.5t-78.5 -31.5t-78 31t-32 77z" />
<glyph unicode="&#xcc;" horiz-adv-x="796" d="M51 0v106h156q92 0 92 105v934q0 106 -94 106h-154v107h697v-107h-156q-94 0 -94 -106v-934q0 -105 92 -105h158v-106h-697zM70 1733q0 28 23 52.5t52 24.5q14 0 26 -3.5t20.5 -7t22 -15.5t19 -17.5t24 -25t26.5 -27.5l256 -262h-95l-284 178q-56 35 -73 54t-17 49z" />
<glyph unicode="&#xcd;" horiz-adv-x="796" d="M51 0v106h156q92 0 92 105v934q0 106 -94 106h-154v107h697v-107h-156q-94 0 -94 -106v-934q0 -105 92 -105h158v-106h-697zM225 1452l256 262q9 9 26.5 27.5t23.5 25t19 18t21.5 15t20.5 7t26 3.5q29 0 52.5 -24.5t23.5 -52.5q0 -30 -17 -49t-73 -54l-285 -178h-94z" />
<glyph unicode="&#xce;" horiz-adv-x="796" d="M51 0v106h156q92 0 92 105v934q0 106 -94 106h-154v107h697v-107h-156q-94 0 -94 -106v-934q0 -105 92 -105h158v-106h-697zM57 1450l254 346h142l254 -346h-89l-235 211l-238 -211h-88z" />
<glyph unicode="&#xcf;" horiz-adv-x="796" d="M51 0v106h156q92 0 92 105v934q0 106 -94 106h-154v107h697v-107h-156q-94 0 -94 -106v-934q0 -105 92 -105h158v-106h-697zM80 1587q0 46 32 77.5t78 31.5t78.5 -31.5t32.5 -77.5q0 -45 -32.5 -76.5t-78.5 -31.5t-78 31t-32 77zM496 1587q0 46 32 77.5t78 31.5 t78.5 -31.5t32.5 -77.5q0 -45 -32.5 -76.5t-78.5 -31.5t-78 31t-32 77z" />
<glyph unicode="&#xd0;" horiz-adv-x="1593" d="M29 0v106h151q92 0 92 105v424h-239v106h239v404q0 106 -94 106h-145v107h758q130 0 239 -22t203 -73t159 -128.5t101.5 -193.5t36.5 -263q0 -141 -37 -255t-101.5 -192t-154.5 -130.5t-192 -76.5t-218 -24h-798zM471 106h299q276 0 408.5 138t132.5 434 q0 298 -138 435.5t-436 137.5h-266v-510h336v-106h-336v-529z" />
<glyph unicode="&#xd1;" horiz-adv-x="1705" d="M35 0v106h158q92 0 92 105v934q0 106 -95 106h-155v107h495l764 -1096h4v883q0 106 -94 106h-160v107h627v-107h-147q-94 0 -94 -106v-1155h-168l-842 1196h-4v-975q0 -105 92 -105h162v-106h-635zM506 1499q19 98 77 161.5t152 63.5q56 0 156 -49t141 -49 q39 0 65.5 31.5t39.5 73.5h69q-25 -104 -73 -160q-60 -70 -156 -70q-66 0 -162 49q-92 49 -131 49q-35 0 -71.5 -33t-39.5 -67h-67z" />
<glyph unicode="&#xd2;" horiz-adv-x="1593" d="M57 678q0 110 28.5 213.5t88.5 196t146 161.5t209 109.5t268 40.5t268 -40.5t208.5 -109.5t145.5 -161.5t88.5 -196t28.5 -213.5t-28.5 -213t-88.5 -195.5t-145.5 -161t-208 -109t-268.5 -40.5t-268.5 40.5t-208.5 109t-146 161t-88.5 195.5t-28.5 213zM276 678 q0 -96 18 -183t58.5 -165.5t100 -135.5t148 -90.5t196.5 -33.5t196 33.5t147.5 90.5t100 135.5t58.5 165.5t18 183t-18 183t-58.5 166t-100 136t-147.5 91t-196 34t-196.5 -34t-148 -91t-100 -136t-58.5 -166t-18 -183zM469 1733q0 28 23.5 52.5t52.5 24.5q14 0 26 -3.5 t20.5 -7t21.5 -15t19 -18t23.5 -25t26.5 -27.5l256 -262h-94l-285 178q-56 35 -73 54t-17 49z" />
<glyph unicode="&#xd3;" horiz-adv-x="1593" d="M57 678q0 110 28.5 213.5t88.5 196t146 161.5t209 109.5t268 40.5t268 -40.5t208.5 -109.5t145.5 -161.5t88.5 -196t28.5 -213.5t-28.5 -213t-88.5 -195.5t-145.5 -161t-208 -109t-268.5 -40.5t-268.5 40.5t-208.5 109t-146 161t-88.5 195.5t-28.5 213zM276 678 q0 -96 18 -183t58.5 -165.5t100 -135.5t148 -90.5t196.5 -33.5t196 33.5t147.5 90.5t100 135.5t58.5 165.5t18 183t-18 183t-58.5 166t-100 136t-147.5 91t-196 34t-196.5 -34t-148 -91t-100 -136t-58.5 -166t-18 -183zM625 1452l256 262q9 9 26.5 27.5t23.5 25t19 18 t21.5 15t20.5 7t26 3.5q29 0 52.5 -24.5t23.5 -52.5q0 -30 -17 -49t-73 -54l-285 -178h-94z" />
<glyph unicode="&#xd4;" horiz-adv-x="1593" d="M57 678q0 110 28.5 213.5t88.5 196t146 161.5t209 109.5t268 40.5t268 -40.5t208.5 -109.5t145.5 -161.5t88.5 -196t28.5 -213.5t-28.5 -213t-88.5 -195.5t-145.5 -161t-208 -109t-268.5 -40.5t-268.5 40.5t-208.5 109t-146 161t-88.5 195.5t-28.5 213zM276 678 q0 -96 18 -183t58.5 -165.5t100 -135.5t148 -90.5t196.5 -33.5t196 33.5t147.5 90.5t100 135.5t58.5 165.5t18 183t-18 183t-58.5 166t-100 136t-147.5 91t-196 34t-196.5 -34t-148 -91t-100 -136t-58.5 -166t-18 -183zM457 1450l254 346h141l254 -346h-88l-236 211 l-237 -211h-88z" />
<glyph unicode="&#xd5;" horiz-adv-x="1593" d="M57 678q0 110 28.5 213.5t88.5 196t146 161.5t209 109.5t268 40.5t268 -40.5t208.5 -109.5t145.5 -161.5t88.5 -196t28.5 -213.5t-28.5 -213t-88.5 -195.5t-145.5 -161t-208 -109t-268.5 -40.5t-268.5 40.5t-208.5 109t-146 161t-88.5 195.5t-28.5 213zM276 678 q0 -96 18 -183t58.5 -165.5t100 -135.5t148 -90.5t196.5 -33.5t196 33.5t147.5 90.5t100 135.5t58.5 165.5t18 183t-18 183t-58.5 166t-100 136t-147.5 91t-196 34t-196.5 -34t-148 -91t-100 -136t-58.5 -166t-18 -183zM432 1499q19 98 77.5 161.5t152.5 63.5q55 0 155 -49 t141 -49q39 0 65.5 31.5t39.5 73.5h70q-24 -102 -74 -160q-60 -70 -156 -70q-66 0 -162 49q-92 49 -131 49q-35 0 -71 -33t-39 -67h-68z" />
<glyph unicode="&#xd6;" horiz-adv-x="1593" d="M57 678q0 110 28.5 213.5t88.5 196t146 161.5t209 109.5t268 40.5t268 -40.5t208.5 -109.5t145.5 -161.5t88.5 -196t28.5 -213.5t-28.5 -213t-88.5 -195.5t-145.5 -161t-208 -109t-268.5 -40.5t-268.5 40.5t-208.5 109t-146 161t-88.5 195.5t-28.5 213zM276 678 q0 -96 18 -183t58.5 -165.5t100 -135.5t148 -90.5t196.5 -33.5t196 33.5t147.5 90.5t100 135.5t58.5 165.5t18 183t-18 183t-58.5 166t-100 136t-147.5 91t-196 34t-196.5 -34t-148 -91t-100 -136t-58.5 -166t-18 -183zM479 1587q0 46 32.5 77.5t78.5 31.5t78 -31.5 t32 -77.5t-32 -77t-78 -31t-78.5 31.5t-32.5 76.5zM895 1587q0 46 32.5 77.5t78.5 31.5t78 -31.5t32 -77.5t-32 -77t-78 -31t-78.5 31.5t-32.5 76.5z" />
<glyph unicode="&#xd7;" horiz-adv-x="1228" d="M135 78l402 401l-402 402l82 77l397 -399l398 399l82 -77l-402 -402l402 -401l-78 -78l-402 399l-401 -399z" />
<glyph unicode="&#xd8;" horiz-adv-x="1593" d="M57 678q0 110 28.5 213.5t88.5 196t146 161.5t209 109.5t268 40.5q272 0 456 -137l152 165l72 -69l-148 -160q102 -101 154.5 -236.5t52.5 -283.5q0 -110 -28.5 -213t-88.5 -195.5t-145.5 -161t-208 -109t-268.5 -40.5q-283 0 -475 152l-156 -168l-72 67l154 166 q-94 99 -142.5 229.5t-48.5 272.5zM276 678q0 -215 91 -373l784 846q-134 137 -354 137q-108 0 -196.5 -34t-148 -91t-100 -136t-58.5 -166t-18 -183zM426 223q137 -153 371 -153q108 0 196 33.5t147.5 90.5t100 135.5t58.5 165.5t18 183q0 237 -105 395z" />
<glyph unicode="&#xd9;" horiz-adv-x="1593" d="M37 1251v107h684v-107h-152q-94 0 -94 -106v-703q0 -183 82.5 -271.5t261.5 -88.5q106 0 178 27.5t112 84t56.5 130t16.5 178.5v643q0 106 -95 106h-153v107h620v-107h-147q-94 0 -94 -106v-623q0 -307 -124 -435t-429 -128q-222 0 -353 111t-131 327v748q0 106 -94 106 h-145zM508 1733q0 28 23.5 52.5t52.5 24.5q14 0 26 -3.5t20.5 -7t21.5 -15t19 -18t23.5 -25t26.5 -27.5l256 -262h-94l-285 178q-56 35 -73 54t-17 49z" />
<glyph unicode="&#xda;" horiz-adv-x="1593" d="M37 1251v107h684v-107h-152q-94 0 -94 -106v-703q0 -183 82.5 -271.5t261.5 -88.5q106 0 178 27.5t112 84t56.5 130t16.5 178.5v643q0 106 -95 106h-153v107h620v-107h-147q-94 0 -94 -106v-623q0 -307 -124 -435t-429 -128q-222 0 -353 111t-131 327v748q0 106 -94 106 h-145zM664 1452l256 262q9 9 26.5 27.5t23.5 25t19 18t21.5 15t20.5 7t26 3.5q29 0 52.5 -24.5t23.5 -52.5q0 -30 -17.5 -49t-73.5 -54l-284 -178h-94z" />
<glyph unicode="&#xdb;" horiz-adv-x="1593" d="M37 1251v107h684v-107h-152q-94 0 -94 -106v-703q0 -183 82.5 -271.5t261.5 -88.5q106 0 178 27.5t112 84t56.5 130t16.5 178.5v643q0 106 -95 106h-153v107h620v-107h-147q-94 0 -94 -106v-623q0 -307 -124 -435t-429 -128q-222 0 -353 111t-131 327v748q0 106 -94 106 h-145zM496 1450l254 346h141l254 -346h-88l-236 211l-237 -211h-88z" />
<glyph unicode="&#xdc;" horiz-adv-x="1593" d="M37 1251v107h684v-107h-152q-94 0 -94 -106v-703q0 -183 82.5 -271.5t261.5 -88.5q106 0 178 27.5t112 84t56.5 130t16.5 178.5v643q0 106 -95 106h-153v107h620v-107h-147q-94 0 -94 -106v-623q0 -307 -124 -435t-429 -128q-222 0 -353 111t-131 327v748q0 106 -94 106 h-145zM518 1587q0 46 32.5 77.5t78.5 31.5t78 -31.5t32 -77.5t-32 -77t-78 -31t-78.5 31.5t-32.5 76.5zM934 1587q0 46 32 77.5t78 31.5t78.5 -31.5t32.5 -77.5q0 -45 -32.5 -76.5t-78.5 -31.5t-78 31t-32 77z" />
<glyph unicode="&#xdd;" horiz-adv-x="1478" d="M33 1251v107h631v-107h-86q-123 0 -123 -45q0 -11 6.5 -24t19 -31t17.5 -27l270 -458l283 450q39 63 39 86q0 49 -93 49h-114v107h553v-107h-52q-49 0 -99 -34.5t-83 -88.5l-368 -598v-297q0 -72 38.5 -99.5t116.5 -27.5h115v-106h-739v106h114q78 0 117 27.5t39 99.5 v297l-397 637q-53 84 -152 84h-53zM600 1452l256 262q9 9 26.5 27.5t23.5 25t19 18t21.5 15t20.5 7t26 3.5q29 0 52.5 -24.5t23.5 -52.5q0 -30 -17 -49t-73 -54l-285 -178h-94z" />
<glyph unicode="&#xde;" horiz-adv-x="1366" d="M37 0v106h160q92 0 92 105v934q0 106 -94 106h-158v107h702v-107h-157q-95 0 -95 -106v-92h353q487 0 487 -373t-487 -373h-353v-96q0 -105 93 -105h159v-106h-702zM487 414h297q324 0 324 266t-324 266h-297v-532z" />
<glyph unicode="&#xdf;" d="M47 0v96h123q49 0 65.5 22t16.5 72v734q0 231 108.5 353t350.5 122q73 0 140.5 -17.5t125 -52.5t91.5 -94.5t34 -136.5q0 -115 -70 -178.5t-190 -79.5v-4q168 -27 264 -130.5t96 -273.5q0 -89 -22.5 -170t-66 -147.5t-117 -106t-167.5 -39.5q-77 0 -131.5 28t-82.5 76.5 t-40 100t-12 111.5v59h115v-51q0 -227 160 -227q35 0 63 15t45.5 35.5t30 55.5t18.5 62.5t9 68.5t3.5 61.5t0.5 53.5q0 165 -85 260.5t-274 95.5h-71v96h77q46 0 88.5 12t80.5 36.5t60.5 68.5t22.5 103q0 36 -9.5 69.5t-31.5 67.5t-67.5 55t-108.5 21q-121 0 -192.5 -73.5 t-71.5 -230.5v-999h-379z" />
<glyph unicode="&#xe0;" horiz-adv-x="1138" d="M45 225q0 75 38.5 129t106.5 86t137 52.5t156 45t138 48.5q45 22 61 52t16 79q0 92 -50 134t-179 42q-171 0 -240 -80q95 -16 95 -104q0 -55 -37 -82t-86 -27q-52 0 -79.5 40.5t-27.5 104.5q0 62 38 111t98.5 77t125.5 42t127 14q93 0 161 -15.5t121 -52.5t80 -104 t27 -164v-479q0 -48 13.5 -78t40.5 -30q96 0 96 174v86h96v-60q0 -160 -55 -228.5t-174 -68.5q-75 0 -121.5 42.5t-58.5 117.5q-144 -160 -363 -160q-134 0 -217.5 63.5t-83.5 192.5zM203 1378q0 28 23.5 53t52.5 25q14 0 26 -3.5t20.5 -7t21.5 -15t19 -18t23.5 -25 t26.5 -27.5l256 -262h-94l-285 178q-56 35 -73 53.5t-17 48.5zM240 236q0 -80 42 -125t119 -45q67 0 136 37t115 100t46 131v188q-51 -29 -159.5 -68.5t-143.5 -54.5q-84 -36 -119.5 -72.5t-35.5 -90.5z" />
<glyph unicode="&#xe1;" horiz-adv-x="1138" d="M45 225q0 75 38.5 129t106.5 86t137 52.5t156 45t138 48.5q45 22 61 52t16 79q0 92 -50 134t-179 42q-171 0 -240 -80q95 -16 95 -104q0 -55 -37 -82t-86 -27q-52 0 -79.5 40.5t-27.5 104.5q0 62 38 111t98.5 77t125.5 42t127 14q93 0 161 -15.5t121 -52.5t80 -104 t27 -164v-479q0 -48 13.5 -78t40.5 -30q96 0 96 174v86h96v-60q0 -160 -55 -228.5t-174 -68.5q-75 0 -121.5 42.5t-58.5 117.5q-144 -160 -363 -160q-134 0 -217.5 63.5t-83.5 192.5zM240 236q0 -80 42 -125t119 -45q67 0 136 37t115 100t46 131v188q-51 -29 -159.5 -68.5 t-143.5 -54.5q-84 -36 -119.5 -72.5t-35.5 -90.5zM358 1098l256 262q8 8 26.5 27.5t24 25t19 17.5t22 15.5t20.5 7t26 3.5q29 0 52 -25t23 -53q0 -30 -17 -48.5t-73 -53.5l-284 -178h-95z" />
<glyph unicode="&#xe2;" horiz-adv-x="1138" d="M45 225q0 75 38.5 129t106.5 86t137 52.5t156 45t138 48.5q45 22 61 52t16 79q0 92 -50 134t-179 42q-171 0 -240 -80q95 -16 95 -104q0 -55 -37 -82t-86 -27q-52 0 -79.5 40.5t-27.5 104.5q0 62 38 111t98.5 77t125.5 42t127 14q93 0 161 -15.5t121 -52.5t80 -104 t27 -164v-479q0 -48 13.5 -78t40.5 -30q96 0 96 174v86h96v-60q0 -160 -55 -228.5t-174 -68.5q-75 0 -121.5 42.5t-58.5 117.5q-144 -160 -363 -160q-134 0 -217.5 63.5t-83.5 192.5zM190 1096l254 346h142l254 -346h-88l-236 211l-237 -211h-89zM240 236q0 -80 42 -125 t119 -45q67 0 136 37t115 100t46 131v188q-51 -29 -159.5 -68.5t-143.5 -54.5q-84 -36 -119.5 -72.5t-35.5 -90.5z" />
<glyph unicode="&#xe3;" horiz-adv-x="1138" d="M45 225q0 75 38.5 129t106.5 86t137 52.5t156 45t138 48.5q45 22 61 52t16 79q0 92 -50 134t-179 42q-171 0 -240 -80q95 -16 95 -104q0 -55 -37 -82t-86 -27q-52 0 -79.5 40.5t-27.5 104.5q0 62 38 111t98.5 77t125.5 42t127 14q93 0 161 -15.5t121 -52.5t80 -104 t27 -164v-479q0 -48 13.5 -78t40.5 -30q96 0 96 174v86h96v-60q0 -160 -55 -228.5t-174 -68.5q-75 0 -121.5 42.5t-58.5 117.5q-144 -160 -363 -160q-134 0 -217.5 63.5t-83.5 192.5zM166 1145q19 98 77 161.5t152 63.5q56 0 156 -49t141 -49q39 0 65.5 31t39.5 73h69 q-24 -102 -73 -159q-60 -70 -156 -70q-66 0 -162 49q-92 49 -131 49q-35 0 -71.5 -33t-39.5 -67h-67zM240 236q0 -80 42 -125t119 -45q67 0 136 37t115 100t46 131v188q-51 -29 -159.5 -68.5t-143.5 -54.5q-84 -36 -119.5 -72.5t-35.5 -90.5z" />
<glyph unicode="&#xe4;" horiz-adv-x="1138" d="M45 225q0 75 38.5 129t106.5 86t137 52.5t156 45t138 48.5q45 22 61 52t16 79q0 92 -50 134t-179 42q-171 0 -240 -80q95 -16 95 -104q0 -55 -37 -82t-86 -27q-52 0 -79.5 40.5t-27.5 104.5q0 62 38 111t98.5 77t125.5 42t127 14q93 0 161 -15.5t121 -52.5t80 -104 t27 -164v-479q0 -48 13.5 -78t40.5 -30q96 0 96 174v86h96v-60q0 -160 -55 -228.5t-174 -68.5q-75 0 -121.5 42.5t-58.5 117.5q-144 -160 -363 -160q-134 0 -217.5 63.5t-83.5 192.5zM213 1233q0 45 32.5 76.5t78.5 31.5t78 -31t32 -77t-32 -77.5t-78 -31.5t-78.5 31.5 t-32.5 77.5zM240 236q0 -80 42 -125t119 -45q67 0 136 37t115 100t46 131v188q-51 -29 -159.5 -68.5t-143.5 -54.5q-84 -36 -119.5 -72.5t-35.5 -90.5zM629 1233q0 46 32 77t78 31t78.5 -31.5t32.5 -76.5q0 -46 -32.5 -77.5t-78.5 -31.5t-78 31.5t-32 77.5z" />
<glyph unicode="&#xe5;" horiz-adv-x="1138" d="M45 225q0 75 38.5 129t106.5 86t137 52.5t156 45t138 48.5q45 22 61 52t16 79q0 92 -50 134t-179 42q-171 0 -240 -80q95 -16 95 -104q0 -55 -37 -82t-86 -27q-52 0 -79.5 40.5t-27.5 104.5q0 62 38 111t98.5 77t125.5 42t127 14q93 0 161 -15.5t121 -52.5t80 -104 t27 -164v-479q0 -48 13.5 -78t40.5 -30q96 0 96 174v86h96v-60q0 -160 -55 -228.5t-174 -68.5q-75 0 -121.5 42.5t-58.5 117.5q-144 -160 -363 -160q-134 0 -217.5 63.5t-83.5 192.5zM240 236q0 -80 42 -125t119 -45q67 0 136 37t115 100t46 131v188q-51 -29 -159.5 -68.5 t-143.5 -54.5q-84 -36 -119.5 -72.5t-35.5 -90.5zM324 1303q0 87 60.5 147.5t147.5 60.5q88 0 148.5 -60.5t60.5 -147.5q0 -86 -60.5 -146.5t-148.5 -60.5t-148 60t-60 147zM408 1303q0 -53 35 -89t89 -36t89.5 36t35.5 89t-36 90t-89 37t-88.5 -37t-35.5 -90z" />
<glyph unicode="&#xe6;" horiz-adv-x="1593" d="M45 225q0 70 31.5 121.5t80.5 80t115 52t127.5 37.5t127 36t104.5 48q15 11 27 44t12 65q0 89 -52.5 136.5t-140.5 47.5q-179 0 -248 -80q95 -16 95 -104q0 -55 -37 -82t-86 -27q-50 0 -78.5 38.5t-28.5 84.5q0 67 32.5 119.5t87.5 83.5t120.5 47t136.5 16 q197 0 315 -127q70 70 143 98.5t163 28.5q96 0 172 -27t125.5 -72.5t83.5 -113.5t50.5 -142.5t22.5 -166.5h-715q0 -401 256 -401q248 0 314 245h119q-34 -167 -139.5 -254.5t-274.5 -87.5q-136 -1 -226.5 50.5t-160.5 166.5q-122 -217 -373 -217q-134 0 -217.5 63.5 t-83.5 192.5zM240 236q0 -80 42 -125t119 -45q111 0 190 94.5t79 273.5v80q-21 -15 -52 -29.5t-56.5 -24t-69.5 -24.5t-68 -24q-10 -4 -36.5 -14t-42 -16.5t-38 -20.5t-35.5 -29.5t-22.5 -40.5t-9.5 -55zM831 563h521q0 143 -67.5 236.5t-199.5 93.5q-120 0 -187 -95 t-67 -235z" />
<glyph unicode="&#xe7;" horiz-adv-x="1024" d="M37 479q0 225 144 367.5t364 142.5q71 0 142 -18.5t133.5 -54.5t101.5 -97t39 -137q0 -64 -35 -102.5t-95 -38.5q-39 0 -69.5 28.5t-30.5 67.5q0 102 105 117q-23 69 -101.5 104t-159.5 35q-93 0 -162.5 -37.5t-107.5 -100t-56 -132t-18 -144.5q0 -74 17.5 -144.5 t52 -132t96 -99t140.5 -37.5q120 0 197 76t102 210h118q-20 -187 -123.5 -278.5t-285.5 -100.5l-43 -104q25 10 63 10q69 0 119.5 -36t50.5 -97q0 -47 -21 -83t-56 -56.5t-76 -30.5t-86 -10q-110 0 -191 37l29 65q55 -22 108 -22q136 0 136 80q0 33 -28.5 53t-66.5 20 t-65 -10l-23 12l72 170q-191 6 -310.5 137.5t-119.5 370.5z" />
<glyph unicode="&#xe8;" horiz-adv-x="1024" d="M45 479q0 250 124.5 380t354.5 130q120 0 207 -39.5t138 -113.5t77 -163.5t33 -205.5h-739q0 -68 6.5 -122.5t25 -108.5t49 -89.5t83 -58t122.5 -22.5q242 0 308 245h118q-70 -342 -428 -342q-230 0 -354.5 130t-124.5 380zM203 1378q0 28 23.5 53t52.5 25q14 0 26 -3.5 t20.5 -7t21.5 -15t19 -18t23.5 -25t26.5 -27.5l256 -262h-94l-285 178q-56 35 -73 53.5t-17 48.5zM240 563h544q0 144 -67 237t-199 93q-91 0 -155.5 -46t-93.5 -119t-29 -165z" />
<glyph unicode="&#xe9;" horiz-adv-x="1024" d="M45 479q0 250 124.5 380t354.5 130q120 0 207 -39.5t138 -113.5t77 -163.5t33 -205.5h-739q0 -68 6.5 -122.5t25 -108.5t49 -89.5t83 -58t122.5 -22.5q242 0 308 245h118q-70 -342 -428 -342q-230 0 -354.5 130t-124.5 380zM240 563h544q0 144 -67 237t-199 93 q-91 0 -155.5 -46t-93.5 -119t-29 -165zM358 1098l256 262q8 8 26.5 27.5t24 25t19 17.5t22 15.5t20.5 7t26 3.5q29 0 52 -25t23 -53q0 -30 -17 -48.5t-73 -53.5l-284 -178h-95z" />
<glyph unicode="&#xea;" horiz-adv-x="1024" d="M45 479q0 250 124.5 380t354.5 130q120 0 207 -39.5t138 -113.5t77 -163.5t33 -205.5h-739q0 -68 6.5 -122.5t25 -108.5t49 -89.5t83 -58t122.5 -22.5q242 0 308 245h118q-70 -342 -428 -342q-230 0 -354.5 130t-124.5 380zM190 1096l254 346h142l254 -346h-88l-236 211 l-237 -211h-89zM240 563h544q0 144 -67 237t-199 93q-91 0 -155.5 -46t-93.5 -119t-29 -165z" />
<glyph unicode="&#xeb;" horiz-adv-x="1024" d="M45 479q0 250 124.5 380t354.5 130q120 0 207 -39.5t138 -113.5t77 -163.5t33 -205.5h-739q0 -68 6.5 -122.5t25 -108.5t49 -89.5t83 -58t122.5 -22.5q242 0 308 245h118q-70 -342 -428 -342q-230 0 -354.5 130t-124.5 380zM213 1233q0 45 32.5 76.5t78.5 31.5t78 -31 t32 -77t-32 -77.5t-78 -31.5t-78.5 31.5t-32.5 77.5zM240 563h544q0 144 -67 237t-199 93q-91 0 -155.5 -46t-93.5 -119t-29 -165zM629 1233q0 46 32 77t78 31t78.5 -31.5t32.5 -76.5q0 -46 -32.5 -77.5t-78.5 -31.5t-78 31.5t-32 77.5z" />
<glyph unicode="&#xec;" horiz-adv-x="681" d="M-6 1378q0 28 23.5 53t52.5 25q14 0 26 -3.5t20.5 -7t21.5 -15t19 -18t23.5 -25t26.5 -27.5l256 -262h-94l-285 178q-56 35 -73 53.5t-17 48.5zM39 0v96h133q49 0 65.5 22t16.5 72v578q0 50 -16.5 72t-65.5 22h-133v96h389v-768q0 -50 16.5 -72t65.5 -22h131v-96h-602z " />
<glyph unicode="&#xed;" horiz-adv-x="681" d="M39 0v96h133q49 0 65.5 22t16.5 72v578q0 50 -16.5 72t-65.5 22h-133v96h389v-768q0 -50 16.5 -72t65.5 -22h131v-96h-602zM150 1098l256 262q9 9 26.5 27.5t23.5 25t19 18t21.5 15t20.5 7t26 3.5q29 0 52 -25t23 -53q0 -30 -17 -48.5t-73 -53.5l-284 -178h-94z" />
<glyph unicode="&#xee;" horiz-adv-x="681" d="M-18 1096l254 346h141l254 -346h-88l-236 211l-237 -211h-88zM39 0v96h133q49 0 65.5 22t16.5 72v578q0 50 -16.5 72t-65.5 22h-133v96h389v-768q0 -50 16.5 -72t65.5 -22h131v-96h-602z" />
<glyph unicode="&#xef;" horiz-adv-x="681" d="M4 1233q0 45 32.5 76.5t78.5 31.5t78 -31t32 -77t-32 -77.5t-78 -31.5t-78.5 31.5t-32.5 77.5zM39 0v96h133q49 0 65.5 22t16.5 72v578q0 50 -16.5 72t-65.5 22h-133v96h389v-768q0 -50 16.5 -72t65.5 -22h131v-96h-602zM420 1233q0 46 32 77t78 31t78.5 -31.5 t32.5 -76.5q0 -46 -32.5 -77.5t-78.5 -31.5t-78 31.5t-32 77.5z" />
<glyph unicode="&#xf0;" horiz-adv-x="1138" d="M41 479q0 226 142.5 368t385.5 142q71 0 146 -16q-68 100 -164 174l-219 -98l-76 57l219 98q-99 69 -213 123l94 31q103 -30 219 -109l238 109l64 -64l-222 -100q89 -67 166.5 -148.5t140.5 -173.5t99.5 -194.5t36.5 -198.5q0 -225 -143 -367.5t-386 -142.5t-385.5 142 t-142.5 368zM236 479q0 -87 17 -158.5t54 -130.5t103.5 -91.5t158.5 -32.5q74 0 132 22t95.5 59.5t62 91t34.5 112.5t10 128q0 87 -17 158.5t-54 130.5t-104 92t-159 33t-158.5 -33t-103.5 -92t-54 -130.5t-17 -158.5z" />
<glyph unicode="&#xf1;" horiz-adv-x="1366" d="M39 0v96h133q49 0 65.5 22t16.5 72v578q0 50 -16.5 72t-65.5 22h-133v96h387v-174h4q130 205 363 205q158 0 243.5 -95.5t85.5 -258.5v-445q0 -50 16.5 -72t65.5 -22h123v-96h-573v96h112q49 0 65.5 22t16.5 72v459q0 111 -48.5 168t-162.5 57q-140 0 -224.5 -94.5 t-84.5 -224.5v-365q0 -50 16.5 -72t65.5 -22h125v-96h-596zM317 1145q19 98 77.5 161.5t152.5 63.5q55 0 155 -49t142 -49q39 0 65 31t39 73h70q-24 -101 -74 -159q-60 -70 -156 -70q-65 0 -161 49q-92 49 -131 49q-35 0 -71.5 -33t-39.5 -67h-68z" />
<glyph unicode="&#xf2;" horiz-adv-x="1138" d="M41 479q0 226 142.5 368t385.5 142t386 -142.5t143 -367.5t-143 -367.5t-386 -142.5t-385.5 142t-142.5 368zM236 479q0 -87 17 -158.5t54 -130.5t103.5 -91.5t158.5 -32.5q74 0 132 22t95.5 59.5t62 91t34.5 112.5t10 128q0 87 -17 158.5t-54 130.5t-104 92t-159 33 t-158.5 -33t-103.5 -92t-54 -130.5t-17 -158.5zM242 1378q0 28 23 53t52 25q14 0 26 -3.5t20.5 -7t22 -15.5t19 -17.5t24 -25t26.5 -27.5l256 -262h-95l-284 178q-56 35 -73 53.5t-17 48.5z" />
<glyph unicode="&#xf3;" horiz-adv-x="1138" d="M41 479q0 226 142.5 368t385.5 142t386 -142.5t143 -367.5t-143 -367.5t-386 -142.5t-385.5 142t-142.5 368zM236 479q0 -87 17 -158.5t54 -130.5t103.5 -91.5t158.5 -32.5q74 0 132 22t95.5 59.5t62 91t34.5 112.5t10 128q0 87 -17 158.5t-54 130.5t-104 92t-159 33 t-158.5 -33t-103.5 -92t-54 -130.5t-17 -158.5zM397 1098l256 262q8 8 26.5 27.5t24 25t19 17.5t22 15.5t20.5 7t26 3.5q29 0 52 -25t23 -53q0 -30 -17 -48.5t-73 -53.5l-284 -178h-95z" />
<glyph unicode="&#xf4;" horiz-adv-x="1138" d="M41 479q0 226 142.5 368t385.5 142t386 -142.5t143 -367.5t-143 -367.5t-386 -142.5t-385.5 142t-142.5 368zM229 1096l254 346h142l254 -346h-88l-236 211l-238 -211h-88zM236 479q0 -87 17 -158.5t54 -130.5t103.5 -91.5t158.5 -32.5q74 0 132 22t95.5 59.5t62 91 t34.5 112.5t10 128q0 87 -17 158.5t-54 130.5t-104 92t-159 33t-158.5 -33t-103.5 -92t-54 -130.5t-17 -158.5z" />
<glyph unicode="&#xf5;" horiz-adv-x="1138" d="M41 479q0 226 142.5 368t385.5 142t386 -142.5t143 -367.5t-143 -367.5t-386 -142.5t-385.5 142t-142.5 368zM205 1145q19 98 77 161.5t152 63.5q56 0 156 -49t141 -49q39 0 65.5 31t39.5 73h69q-24 -101 -74 -159q-60 -70 -155 -70q-66 0 -162 49q-92 49 -131 49 q-35 0 -71.5 -33t-39.5 -67h-67zM236 479q0 -87 17 -158.5t54 -130.5t103.5 -91.5t158.5 -32.5q74 0 132 22t95.5 59.5t62 91t34.5 112.5t10 128q0 87 -17 158.5t-54 130.5t-104 92t-159 33t-158.5 -33t-103.5 -92t-54 -130.5t-17 -158.5z" />
<glyph unicode="&#xf6;" horiz-adv-x="1138" d="M41 479q0 226 142.5 368t385.5 142t386 -142.5t143 -367.5t-143 -367.5t-386 -142.5t-385.5 142t-142.5 368zM236 479q0 -87 17 -158.5t54 -130.5t103.5 -91.5t158.5 -32.5q74 0 132 22t95.5 59.5t62 91t34.5 112.5t10 128q0 87 -17 158.5t-54 130.5t-104 92t-159 33 t-158.5 -33t-103.5 -92t-54 -130.5t-17 -158.5zM252 1233q0 46 32 77t78 31t78.5 -31.5t32.5 -76.5q0 -46 -32.5 -77.5t-78.5 -31.5t-78 31.5t-32 77.5zM668 1233q0 46 32 77t78 31t78.5 -31.5t32.5 -76.5q0 -46 -32.5 -77.5t-78.5 -31.5t-78 31.5t-32 77.5z" />
<glyph unicode="&#xf7;" horiz-adv-x="1228" d="M135 424v111h959v-111h-959zM500 88q0 46 34 79.5t78 33.5q46 0 80.5 -34.5t34.5 -78.5q0 -43 -34.5 -79t-78.5 -36q-46 0 -80 34.5t-34 80.5zM500 870q0 47 33.5 81t78.5 34q46 0 80.5 -34.5t34.5 -80.5q0 -42 -34.5 -77t-78.5 -35q-46 0 -80 34t-34 78z" />
<glyph unicode="&#xf8;" horiz-adv-x="1138" d="M4 14l143 140q-106 130 -106 325q0 226 142.5 368t385.5 142q199 0 338 -102l148 143l69 -65l-147 -142q121 -140 121 -344q0 -225 -143 -367.5t-386 -142.5q-213 0 -354 115l-141 -137zM236 479q0 -128 32 -209l543 525q-82 98 -242 98q-92 0 -158.5 -33t-103.5 -92 t-54 -130.5t-17 -158.5zM315 180q81 -114 254 -114q74 0 132 22t95.5 59.5t62 91t34.5 112.5t10 128q0 138 -41 234z" />
<glyph unicode="&#xf9;" horiz-adv-x="1366" d="M39 862v96h379v-649q0 -111 48.5 -168t162.5 -57q140 0 224.5 94.5t84.5 224.5v365q0 50 -16.5 72t-65.5 22h-125v96h381v-768q0 -50 16.5 -72t65.5 -22h133v-96h-387v174h-4q-130 -205 -363 -205q-164 0 -246.5 78t-82.5 244v477q0 50 -16.5 72t-65.5 22h-123zM340 1378 q0 28 23.5 53t52.5 25q14 0 26 -3.5t20.5 -7t21.5 -15t19 -18t23.5 -25t26.5 -27.5l256 -262h-94l-285 178q-56 35 -73 53.5t-17 48.5z" />
<glyph unicode="&#xfa;" horiz-adv-x="1366" d="M39 862v96h379v-649q0 -111 48.5 -168t162.5 -57q140 0 224.5 94.5t84.5 224.5v365q0 50 -16.5 72t-65.5 22h-125v96h381v-768q0 -50 16.5 -72t65.5 -22h133v-96h-387v174h-4q-130 -205 -363 -205q-164 0 -246.5 78t-82.5 244v477q0 50 -16.5 72t-65.5 22h-123zM496 1098 l256 262q9 9 26.5 27.5t23.5 25t19 18t21.5 15t20.5 7t26 3.5q29 0 52.5 -25t23.5 -53q0 -30 -17.5 -48.5t-73.5 -53.5l-284 -178h-94z" />
<glyph unicode="&#xfb;" horiz-adv-x="1366" d="M39 862v96h379v-649q0 -111 48.5 -168t162.5 -57q140 0 224.5 94.5t84.5 224.5v365q0 50 -16.5 72t-65.5 22h-125v96h381v-768q0 -50 16.5 -72t65.5 -22h133v-96h-387v174h-4q-130 -205 -363 -205q-164 0 -246.5 78t-82.5 244v477q0 50 -16.5 72t-65.5 22h-123zM328 1096 l254 346h141l254 -346h-88l-236 211l-237 -211h-88z" />
<glyph unicode="&#xfc;" horiz-adv-x="1366" d="M39 862v96h379v-649q0 -111 48.5 -168t162.5 -57q140 0 224.5 94.5t84.5 224.5v365q0 50 -16.5 72t-65.5 22h-125v96h381v-768q0 -50 16.5 -72t65.5 -22h133v-96h-387v174h-4q-130 -205 -363 -205q-164 0 -246.5 78t-82.5 244v477q0 50 -16.5 72t-65.5 22h-123zM350 1233 q0 45 32.5 76.5t78.5 31.5t78 -31t32 -77t-32 -77.5t-78 -31.5t-78.5 31.5t-32.5 77.5zM766 1233q0 45 32.5 76.5t78.5 31.5t78 -31t32 -77t-32 -77.5t-78 -31.5t-78.5 31.5t-32.5 77.5z" />
<glyph unicode="&#xfd;" d="M37 -225q0 85 38.5 123.5t88.5 38.5q46 0 78 -28.5t32 -78.5q0 -94 -122 -94q6 -29 41 -51.5t79 -22.5q136 0 203 135l98 199l-346 758q-27 59 -59 83.5t-88 24.5h-43v96h530v-96h-45q-74 0 -99.5 -8t-25.5 -33q0 -7 2 -16.5t8.5 -25.5t11 -27.5t15.5 -37.5t17 -40 l202 -479l240 553q14 37 14 65q0 49 -125 49h-57v96h487v-96h-57q-81 0 -139 -129l-428 -958q-41 -93 -126.5 -151t-191.5 -58q-94 0 -163.5 58t-69.5 151zM453 1098l256 262q9 9 26.5 27.5t23.5 25t19 18t21.5 15t20.5 7t26 3.5q29 0 52.5 -25t23.5 -53q0 -30 -17.5 -48.5 t-73.5 -53.5l-284 -178h-94z" />
<glyph unicode="&#xfe;" d="M-8 -338h102q92 0 92 105v1388q0 107 -94 107h-100v96h368v-580h5q113 211 340 211q109 0 194.5 -42t137 -113.5t78 -160.5t26.5 -190q0 -104 -26.5 -194.5t-78 -163t-137 -114.5t-194.5 -42q-124 0 -204.5 49.5t-135.5 143.5h-5v-395q0 -105 93 -105h112v-96h-573v96z M360 479q0 -80 17 -149t51 -125t91.5 -88.5t133.5 -32.5t133.5 32.5t91.5 88.5t51 125t17 149t-17 149t-51 125t-91.5 88.5t-133.5 32.5t-133.5 -32.5t-91.5 -88.5t-51 -125t-17 -149z" />
<glyph unicode="&#xff;" d="M37 -225q0 85 38.5 123.5t88.5 38.5q46 0 78 -28.5t32 -78.5q0 -94 -122 -94q6 -29 41 -51.5t79 -22.5q136 0 203 135l98 199l-346 758q-27 59 -59 83.5t-88 24.5h-43v96h530v-96h-45q-74 0 -99.5 -8t-25.5 -33q0 -7 2 -16.5t8.5 -25.5t11 -27.5t15.5 -37.5t17 -40 l202 -479l240 553q14 37 14 65q0 49 -125 49h-57v96h487v-96h-57q-81 0 -139 -129l-428 -958q-41 -93 -126.5 -151t-191.5 -58q-94 0 -163.5 58t-69.5 151zM307 1233q0 45 32.5 76.5t78.5 31.5t78 -31t32 -77t-32 -77.5t-78 -31.5t-78.5 31.5t-32.5 77.5zM723 1233 q0 45 32.5 76.5t78.5 31.5t78 -31t32 -77t-32 -77.5t-78 -31.5t-78.5 31.5t-32.5 77.5z" />
<glyph unicode="&#x152;" horiz-adv-x="1933" d="M39 678q0 148 40.5 271t103 200t141.5 130.5t153 76t141 22.5q42 0 88 -2t102 -5.5t85 -4.5q208 -8 465 -8h463v-514h-107q-2 64 -5.5 104t-12 88t-22.5 76.5t-38 58t-58 45t-83 25.5t-113 10h-303v-491h88q50 0 81.5 7.5t53 22.5t32.5 49t16 75.5t8 113.5h106v-668h-106 q-2 66 -5.5 107.5t-12 77.5t-20.5 54.5t-33.5 32t-49.5 17.5t-70 4h-88v-547h303q64 0 112.5 10t83 26t58.5 47t38 61t22.5 81.5t12 95.5t5.5 114h107v-541h-463q-257 0 -465 -8q-270 -12 -297 -12q-255 0 -406 191.5t-151 506.5zM238 678q0 -128 23 -231t72 -185t133 -127 t198 -45q108 0 162.5 28t54.5 107v908q0 79 -54.5 107t-162.5 28q-114 0 -198 -45.5t-133 -127.5t-72 -185.5t-23 -231.5z" />
<glyph unicode="&#x153;" horiz-adv-x="1820" d="M41 479q0 226 142.5 368t385.5 142q122 0 226 -43t172 -135q71 92 156 135t200 43t201 -40t138.5 -113t80.5 -164t35 -205h-731q0 -56 4.5 -102.5t15.5 -94t31.5 -83t50.5 -63.5t74.5 -43t101.5 -15q241 0 307 245h119q-34 -167 -139.5 -254.5t-274.5 -87.5 q-241 0 -374 183q-134 -183 -394 -183q-243 0 -385.5 142t-142.5 368zM236 479q0 -87 17 -158.5t54 -130.5t103.5 -91.5t158.5 -32.5q83 0 145.5 33t99 91t54 130.5t17.5 158.5t-17.5 158.5t-54 131t-99 91.5t-145.5 33q-92 0 -158.5 -33t-103.5 -92t-54 -130.5t-17 -158.5z M1047 563h536q0 144 -67 237t-199 93q-130 0 -200 -94t-70 -236z" />
<glyph unicode="&#x178;" horiz-adv-x="1478" d="M33 1251v107h631v-107h-86q-123 0 -123 -45q0 -11 6.5 -24t19 -31t17.5 -27l270 -458l283 450q39 63 39 86q0 49 -93 49h-114v107h553v-107h-52q-49 0 -99 -34.5t-83 -88.5l-368 -598v-297q0 -72 38.5 -99.5t116.5 -27.5h115v-106h-739v106h114q78 0 117 27.5t39 99.5 v297l-397 637q-53 84 -152 84h-53zM455 1587q0 46 32 77.5t78 31.5t78.5 -31.5t32.5 -77.5q0 -45 -32.5 -76.5t-78.5 -31.5t-78 31t-32 77zM870 1587q0 46 32.5 77.5t78.5 31.5t78.5 -31.5t32.5 -77.5q0 -45 -32.5 -76.5t-78.5 -31.5t-78.5 31.5t-32.5 76.5z" />
<glyph unicode="&#x2c6;" horiz-adv-x="681" d="M0 1096l254 346h141l254 -346h-88l-235 211l-238 -211h-88z" />
<glyph unicode="&#x2dc;" horiz-adv-x="681" d="M-25 1145q19 98 77.5 161.5t152.5 63.5q55 0 155 -49t142 -49q39 0 65 31t39 73h70q-24 -101 -74 -159q-60 -70 -156 -70q-65 0 -161 49q-92 49 -131 49q-35 0 -71.5 -33t-39.5 -67h-68z" />
<glyph unicode="&#x2000;" horiz-adv-x="933" />
<glyph unicode="&#x2001;" horiz-adv-x="1866" />
<glyph unicode="&#x2002;" horiz-adv-x="933" />
<glyph unicode="&#x2003;" horiz-adv-x="1866" />
<glyph unicode="&#x2004;" horiz-adv-x="622" />
<glyph unicode="&#x2005;" horiz-adv-x="466" />
<glyph unicode="&#x2006;" horiz-adv-x="311" />
<glyph unicode="&#x2007;" horiz-adv-x="311" />
<glyph unicode="&#x2008;" horiz-adv-x="233" />
<glyph unicode="&#x2009;" horiz-adv-x="373" />
<glyph unicode="&#x200a;" horiz-adv-x="103" />
<glyph unicode="&#x2010;" horiz-adv-x="624" d="M47 406v147h531v-147h-531z" />
<glyph unicode="&#x2011;" horiz-adv-x="624" d="M47 406v147h531v-147h-531z" />
<glyph unicode="&#x2012;" horiz-adv-x="624" d="M47 406v147h531v-147h-531z" />
<glyph unicode="&#x2013;" horiz-adv-x="1024" d="M0 422v115h1024v-115h-1024z" />
<glyph unicode="&#x2014;" horiz-adv-x="2048" d="M0 422v115h2048v-115h-2048z" />
<glyph unicode="&#x2018;" horiz-adv-x="454" d="M84 1096q0 47 17 93.5t50 90t90 75.5t130 44v-76q-65 -5 -128 -58t-69 -114q-3 -29 0 -59q47 26 82 26q55 0 82 -27.5t27 -74.5q0 -52 -34.5 -81.5t-90.5 -29.5q-75 0 -115.5 54.5t-40.5 136.5z" />
<glyph unicode="&#x2019;" horiz-adv-x="454" d="M84 905v76q65 5 128 58t69 114q3 29 0 59q-47 -26 -82 -26q-55 0 -82 27.5t-27 74.5q0 52 34.5 81.5t90.5 29.5q75 0 115.5 -54.5t40.5 -136.5q0 -47 -17 -93.5t-50 -90t-90 -75.5t-130 -44z" />
<glyph unicode="&#x201a;" horiz-adv-x="454" d="M84 -219q65 5 128 58t69 114q3 30 0 59q-47 -26 -82 -26q-55 0 -82 27.5t-27 74.5q0 52 34.5 81.5t90.5 29.5q75 0 115.5 -54.5t40.5 -136.5q0 -47 -17 -93.5t-50 -90t-90 -75.5t-130 -44v76z" />
<glyph unicode="&#x201c;" horiz-adv-x="909" d="M84 1096q0 47 17 93.5t50 90t90 75.5t130 44v-76q-65 -5 -128 -58t-69 -114q-3 -29 0 -59q47 26 82 26q55 0 82 -27.5t27 -74.5q0 -52 -34.5 -81.5t-90.5 -29.5q-75 0 -115.5 54.5t-40.5 136.5zM539 1096q0 47 16.5 93.5t49.5 90t90 75.5t130 44v-76q-65 -5 -127.5 -58 t-68.5 -114q-3 -29 0 -59q47 26 82 26q55 0 81.5 -27.5t26.5 -74.5q0 -52 -34.5 -81.5t-90.5 -29.5q-75 0 -115 54t-40 137z" />
<glyph unicode="&#x201d;" horiz-adv-x="909" d="M84 905v76q65 5 128 58t69 114q3 29 0 59q-47 -26 -82 -26q-55 0 -82 27.5t-27 74.5q0 52 34.5 81.5t90.5 29.5q75 0 115.5 -54.5t40.5 -136.5q0 -47 -17 -93.5t-50 -90t-90 -75.5t-130 -44zM539 905v76q65 5 127.5 58t68.5 114q3 29 0 59q-47 -26 -82 -26 q-55 0 -81.5 27.5t-26.5 74.5q0 52 34.5 81.5t90.5 29.5q75 0 115 -54t40 -137q0 -47 -16.5 -93.5t-49.5 -90t-90 -75.5t-130 -44z" />
<glyph unicode="&#x201e;" horiz-adv-x="909" d="M84 -219q65 5 128 58t69 114q3 30 0 59q-47 -26 -82 -26q-55 0 -82 27.5t-27 74.5q0 52 34.5 81.5t90.5 29.5q75 0 115.5 -54.5t40.5 -136.5q0 -47 -17 -93.5t-50 -90t-90 -75.5t-130 -44v76zM539 -219q65 5 127.5 58t68.5 114q3 29 0 59q-47 -26 -82 -26 q-55 0 -81.5 27.5t-26.5 74.5q0 52 34.5 81.5t90.5 29.5q75 0 115 -54t40 -137q0 -47 -16.5 -93.5t-49.5 -90t-90 -75.5t-130 -44v76z" />
<glyph unicode="&#x2022;" horiz-adv-x="1024" d="M172 680q-1 141 99 240.5t241 99.5t240.5 -99.5t99.5 -240.5q0 -144 -99 -242t-241 -98t-241 98t-99 242z" />
<glyph unicode="&#x2026;" horiz-adv-x="2048" d="M227 84q0 50 32 82.5t83 32.5t83 -32.5t32 -82.5t-32 -82.5t-83 -32.5t-83 32.5t-32 82.5zM909 84q0 50 32 82.5t83 32.5t83 -32.5t32 -82.5t-32 -82.5t-83 -32.5t-83 32.5t-32 82.5zM1591 84q0 50 32 82.5t83 32.5t83 -32.5t32 -82.5t-32 -82.5t-83 -32.5t-83 32.5 t-32 82.5z" />
<glyph unicode="&#x202f;" horiz-adv-x="373" />
<glyph unicode="&#x2039;" horiz-adv-x="681" d="M184 477q0 26 42 95.5t94.5 146.5t64.5 100h113q-6 -15 -47 -98.5t-77 -159t-36 -82.5q0 -3 36.5 -79.5t77 -161t46.5 -97.5h-113q-2 2 -30.5 44.5t-53 80t-53.5 84t-46.5 80.5t-17.5 47z" />
<glyph unicode="&#x203a;" horiz-adv-x="681" d="M184 141q6 13 46.5 97.5t77 161t36.5 79.5q0 7 -36 82.5t-77 159t-47 98.5h113q12 -23 64.5 -100t94.5 -146.5t42 -95.5q0 -13 -17.5 -47t-46.5 -80.5t-53.5 -84t-53 -80t-30.5 -44.5h-113z" />
<glyph unicode="&#x205f;" horiz-adv-x="466" />
<glyph unicode="&#x20ac;" d="M66 487l40 103h95v28q0 49 2 74h-137l40 103h109q35 220 158.5 347.5t328.5 127.5q101 0 175 -29t139 -104l35 104h90v-354h-97q-31 136 -110 208t-195 72q-271 0 -323 -372h594l-41 -103h-563q-3 -37 -3 -74v-28h527l-41 -103h-479q10 -89 34 -162t63 -131t97.5 -90 t132.5 -32q249 0 307 280h97v-352h-90l-35 102q-65 -75 -141.5 -104t-178.5 -29q-109 0 -196.5 39.5t-146.5 111t-95 163.5t-49 204h-143z" />
<glyph unicode="&#x2122;" horiz-adv-x="2027" d="M74 1178v180h694v-180h-39q-33 141 -139 141h-105v-635q0 -77 13 -92q8 -10 26 -14t64 -9v-39h-334v39q46 5 64 9t26 14q12 14 12 92v635h-104q-106 0 -139 -141h-39zM860 1319v39h236l321 -645l336 645h201v-39q-64 -3 -90.5 -32t-26.5 -85v-518q0 -78 12 -92 q8 -10 26 -14t64 -9v-39h-333v39q80 9 92 23q2 3 4 6.5t3 6.5t1.5 9t1 10t0.5 12.5v13.5v16v18v483h-4l-318 -643h-18l-311 637h-4v-461q0 -68 21 -96t85 -35v-39h-266v39q65 7 86.5 35t21.5 96v517q-19 45 -58.5 73.5t-82.5 28.5z" />
<glyph unicode="&#xe000;" horiz-adv-x="962" d="M0 0v963h963v-963h-963z" />
</font>
</defs>
</svg>
